<svg width="40" height="40" viewBox="0 0 40 40" fill="none" xmlns="http://www.w3.org/2000/svg">
<path d="M37.016 30.6814V9.31807L39.4648 5.36805C40.1467 4.26814 40.178 2.93644 39.5487 1.80576C38.9194 0.675069 37.771 0 36.4771 0H12.7908C11.4967 0 10.3484 0.675069 9.71916 1.80591C9.08987 2.93668 9.1212 4.2683 9.80306 5.36813L12.2519 9.31815V9.62557C9.17643 16.5266 4.36509 27.5661 0.168507 37.2378C-0.2368 38.172 0.109054 39.2197 0.991073 39.7288C1.30794 39.9118 1.65044 40 1.98731 40C2.588 40 3.17104 39.7195 3.5594 39.1952C6.46136 35.279 9.35887 31.3595 12.2519 27.4367V30.6813L9.80314 34.6312C9.1212 35.7311 9.08987 37.0628 9.71916 38.1935C10.3484 39.3244 11.4967 39.9994 12.7908 39.9994H36.4771C37.7711 39.9994 38.9194 39.3244 39.5487 38.1937C40.178 37.0629 40.1467 35.7312 39.4648 34.6314L37.016 30.6814ZM37.5009 37.0538C37.4002 37.2347 37.0988 37.6557 36.477 37.6557H12.7908C12.169 37.6557 11.8676 37.2347 11.7669 37.0537C11.6662 36.8728 11.4673 36.3947 11.7949 35.8663L14.076 32.1871H35.1919L37.473 35.8664C37.8006 36.3948 37.6016 36.8729 37.5009 37.0538ZM37.5009 2.94566C37.6016 3.12668 37.8006 3.60472 37.4729 4.13315L35.1919 7.81239H26.151C26.7633 5.9339 26.3914 3.88284 25.2185 2.34372H36.4771C37.0988 2.34372 37.4002 2.76465 37.5009 2.94566ZM34.6723 17.8147L21.0063 15.4996C21.6318 14.6394 22.2555 13.7779 22.8772 12.9149L34.6724 14.9143L34.6723 17.8147ZM34.6723 20.1918V23.1029L17.5687 20.2065C18.2013 19.3434 18.8333 18.4797 19.4644 17.6154L34.6723 20.1918ZM34.6723 25.48V28.4089L14.5955 25.009V24.2548C15.0774 23.5998 15.552 22.9542 16.0173 22.3209L34.6723 25.48ZM29.1057 29.8433H14.5955V27.3862L29.1057 29.8433ZM34.6723 12.5371L24.3914 10.7944C24.5547 10.5631 24.704 10.35 24.8389 10.1561H34.6723V12.5371ZM11.7669 2.94574C11.8676 2.76473 12.169 2.34372 12.7908 2.34372H15.7427C15.5869 2.54752 15.4442 2.76102 15.3156 2.98293C15.083 3.38581 14.4326 4.77751 13.4892 6.86576L11.7949 4.13299C11.4673 3.60464 11.6662 3.12668 11.7669 2.94574ZM17.3451 4.15479C17.8287 3.31722 18.6094 2.71817 19.5435 2.46786C20.4773 2.21763 21.4531 2.34598 22.2906 2.82949C24.0194 3.82768 24.6139 6.0464 23.6158 7.77528C22.9668 8.89949 15.7138 18.8371 3.61737 35.1789C11.7183 16.5301 16.6962 5.27883 17.3451 4.15479Z" fill="#00ADEB"/>
<path d="M18.5812 9.41407C18.7589 9.51705 18.9607 9.57127 19.1661 9.57125C19.571 9.57125 19.9649 9.3611 20.1819 8.98516L21.5641 6.59094C21.8877 6.03047 21.6957 5.31376 21.1352 4.99016C20.5748 4.66649 19.858 4.85852 19.5345 5.41907L18.1523 7.81329C17.8287 8.37375 18.0207 9.09047 18.5812 9.41407Z" fill="#00ADEB"/>
</svg>
