<svg width="40" height="40" viewBox="0 0 40 40" fill="none" xmlns="http://www.w3.org/2000/svg">
<path d="M1.17188 36.4745L19.9999 38.828L38.828 36.4745" stroke="#00ADEB" stroke-width="3" stroke-miterlimit="10" stroke-linecap="round" stroke-linejoin="round"/>
<path d="M34.8437 30.694V25.5468L25.5827 27.4965C22.3291 28.1815 20 31.0519 20 34.3769V38.0468" stroke="#00ADEB" stroke-width="3" stroke-miterlimit="10" stroke-linecap="round" stroke-linejoin="round"/>
<path d="M5.15625 30.694V25.5468L14.4172 27.4965C17.6708 28.1815 20 31.0519 20 34.3769V38.0468" stroke="#00ADEB" stroke-width="3" stroke-miterlimit="10" stroke-linecap="round" stroke-linejoin="round"/>
<path d="M12.1875 8.98434C12.1875 11.4105 13.2951 13.5752 15.031 15.0064C15.9785 15.7876 16.582 16.9074 16.582 18.1353V18.3593H23.4179V18.1353C23.4179 16.9074 24.0214 15.7876 24.9689 15.0064C26.7049 13.5752 27.8125 11.4105 27.8125 8.98434" stroke="#00ADEB" stroke-width="3" stroke-miterlimit="10" stroke-linecap="round" stroke-linejoin="round"/>
<path d="M21.8555 23.0468H18.1445C17.2816 23.0468 16.582 22.3473 16.582 21.4843V18.3593H23.4179V21.4843C23.4179 22.3473 22.7184 23.0468 21.8555 23.0468Z" stroke="#00ADEB" stroke-width="3" stroke-miterlimit="10" stroke-linecap="round" stroke-linejoin="round"/>
<path d="M27.8125 8.98434C27.8125 4.66959 24.3147 1.17187 20 1.17187C15.6852 1.17187 12.1875 4.66959 12.1875 8.98434" stroke="#00ADEB" stroke-width="3" stroke-miterlimit="10" stroke-linecap="round" stroke-linejoin="round"/>
<path d="M32.5 8.98434H34.8437" stroke="#00ADEB" stroke-width="3" stroke-miterlimit="10" stroke-linecap="round" stroke-linejoin="round"/>
<path d="M31.7188 3.90623L33.7484 2.73436" stroke="#00ADEB" stroke-width="3" stroke-miterlimit="10" stroke-linecap="round" stroke-linejoin="round"/>
<path d="M31.7188 14.0625L33.7484 15.2343" stroke="#00ADEB" stroke-width="3" stroke-miterlimit="10" stroke-linecap="round" stroke-linejoin="round"/>
<path d="M7.49999 8.98434H5.15625" stroke="#00ADEB" stroke-width="3" stroke-miterlimit="10" stroke-linecap="round" stroke-linejoin="round"/>
<path d="M8.28115 3.90623L6.25146 2.73436" stroke="#00ADEB" stroke-width="3" stroke-miterlimit="10" stroke-linecap="round" stroke-linejoin="round"/>
<path d="M8.28115 14.0625L6.25146 15.2343" stroke="#00ADEB" stroke-width="3" stroke-miterlimit="10" stroke-linecap="round" stroke-linejoin="round"/>
<path d="M20 18.3593V10.5468" stroke="#00ADEB" stroke-width="3" stroke-miterlimit="10" stroke-linecap="round" stroke-linejoin="round"/>
<path d="M22.3437 8.2031L20 10.5468L17.6562 8.2031" stroke="#00ADEB" stroke-width="3" stroke-miterlimit="10" stroke-linecap="round" stroke-linejoin="round"/>
<path d="M36.4062 36.7772V30.3964L24.4454 32.6746C21.8662 33.1659 20 35.421 20 38.0468V38.828" stroke="#00ADEB" stroke-width="3" stroke-miterlimit="10" stroke-linecap="round" stroke-linejoin="round"/>
<path d="M3.59375 36.7772V30.3964L15.5545 32.6746C18.1338 33.1659 19.9999 35.421 19.9999 38.0468V38.828" stroke="#00ADEB" stroke-width="3" stroke-miterlimit="10" stroke-linecap="round" stroke-linejoin="round"/>
</svg>
