<svg width="40" height="40" viewBox="0 0 40 40" fill="none" xmlns="http://www.w3.org/2000/svg">
<path d="M20 38.828H5.9375V25.5468H20M20 38.828V25.5468M20 38.828H34.0624V25.5468H20" stroke="#00ADEB" stroke-width="3" stroke-miterlimit="10" stroke-linecap="round" stroke-linejoin="round"/>
<path d="M15.2343 18.5156H1.17188L5.93749 25.5468H19.9999L15.2343 18.5156Z" stroke="#00ADEB" stroke-width="3" stroke-miterlimit="10" stroke-linecap="round" stroke-linejoin="round"/>
<path d="M24.7656 18.5156H38.8281L34.0625 25.5468H20L24.7656 18.5156Z" stroke="#00ADEB" stroke-width="3" stroke-miterlimit="10" stroke-linecap="round" stroke-linejoin="round"/>
<path d="M28.0423 8.83638C24.6794 10.778 20 8.96911 20 8.96911C20 8.96911 20.7731 4.01218 24.1361 2.07054C27.499 0.128985 32.1784 1.93788 32.1784 1.93788C32.1784 1.93788 31.4053 6.89474 28.0423 8.83638Z" stroke="#00ADEB" stroke-width="3" stroke-miterlimit="10" stroke-linecap="round" stroke-linejoin="round"/>
<path d="M15.8641 2.07062C19.2271 4.01226 20.0002 8.96912 20.0002 8.96912C20.0002 8.96912 15.3208 10.7781 11.9579 8.83646C8.5949 6.89483 7.82178 1.93789 7.82178 1.93789C7.82178 1.93789 12.5011 0.128989 15.8641 2.07062Z" stroke="#00ADEB" stroke-width="3" stroke-miterlimit="10" stroke-linecap="round" stroke-linejoin="round"/>
<path d="M26.0892 5.4535L20 8.96912" stroke="#00ADEB" stroke-width="3" stroke-miterlimit="10" stroke-linecap="round" stroke-linejoin="round"/>
<path d="M13.9106 5.4535L19.9998 8.96912" stroke="#00ADEB" stroke-width="3" stroke-miterlimit="10" stroke-linecap="round" stroke-linejoin="round"/>
<path d="M20 17.3437V8.9691" stroke="#00ADEB" stroke-width="3" stroke-miterlimit="10" stroke-linecap="round" stroke-linejoin="round"/>
</svg>
