<svg width="40" height="40" viewBox="0 0 40 40" fill="none" xmlns="http://www.w3.org/2000/svg">
<path d="M36.9805 0H23.9845C23.3373 0 22.8126 0.524687 22.8126 1.17187V6.55922C22.8126 6.78548 22.8781 7.0069 23.0012 7.19674C23.1243 7.38658 23.2997 7.53672 23.5063 7.62904C23.7129 7.72136 23.9418 7.7519 24.1653 7.71699C24.3889 7.68207 24.5975 7.58318 24.7661 7.43227C25.0758 7.15404 25.4822 7.00821 25.8982 7.02601C26.7263 7.05875 27.3995 7.73312 27.4308 8.56125C27.4474 9.00148 27.2891 9.41789 26.9848 9.73383C26.6804 10.0501 26.271 10.2242 25.832 10.2242C25.4386 10.2244 25.059 10.0793 24.766 9.81664C24.5974 9.66572 24.3888 9.56683 24.1652 9.53192C23.9417 9.497 23.7128 9.52755 23.5062 9.61988C23.2996 9.71221 23.1242 9.86236 23.0011 10.0522C22.878 10.2421 22.8125 10.4635 22.8125 10.6898V16.0156C22.8125 16.6628 23.3372 17.1875 23.9844 17.1875H27.4895C27.4421 17.463 27.4238 17.7428 27.4351 18.0221C27.5159 20.0655 29.1801 21.7269 31.2238 21.8041C31.2753 21.806 31.3266 21.807 31.378 21.807C32.4034 21.807 33.3686 21.4187 34.1105 20.7044C34.8899 19.954 35.3191 18.945 35.3191 17.8634C35.3191 17.6353 35.2994 17.4093 35.2609 17.1876H38.8282C39.4754 17.1876 40.0001 16.6629 40.0001 16.0157V3.01961C40.0001 1.35461 38.6455 0 36.9805 0ZM37.6563 14.8437H33.4409C33.2146 14.8437 32.9931 14.9091 32.8032 15.0322C32.6133 15.1553 32.4631 15.3308 32.3708 15.5374C32.2784 15.744 32.2479 15.9729 32.2829 16.1965C32.3178 16.4201 32.4168 16.6288 32.5678 16.7973C32.8304 17.0903 32.9756 17.47 32.9754 17.8634C32.9754 18.3022 32.8013 18.7116 32.485 19.0161C32.1691 19.3203 31.7542 19.478 31.3124 19.462C30.4842 19.4308 29.8099 18.7575 29.7772 17.9295C29.7606 17.5105 29.9049 17.1084 30.1834 16.7973C30.3342 16.6287 30.4331 16.4201 30.468 16.1965C30.5029 15.973 30.4723 15.7441 30.38 15.5375C30.2876 15.331 30.1375 15.1555 29.9477 15.0324C29.7578 14.9093 29.5364 14.8438 29.3102 14.8437H25.1563V12.5099C25.378 12.5484 25.6038 12.568 25.8318 12.568H25.8323C26.9139 12.568 27.9229 12.1389 28.6732 11.3595C29.4234 10.5805 29.8139 9.55531 29.7729 8.47281C29.6957 6.42914 28.0344 4.76492 25.9908 4.68414C25.7115 4.67283 25.4318 4.69111 25.1563 4.73867V2.34375H36.9805C37.3532 2.34375 37.6563 2.64695 37.6563 3.01961V14.8437Z" fill="#00ADEB"/>
<path d="M30.8594 22.8125H25.472C25.2457 22.8124 25.0242 22.8779 24.8343 23.001C24.6444 23.1241 24.4943 23.2995 24.4019 23.5062C24.3096 23.7128 24.2791 23.9417 24.314 24.1653C24.349 24.3889 24.448 24.5975 24.599 24.7661C24.8616 25.0591 25.0067 25.4387 25.0066 25.8322C25.0066 26.2709 24.8324 26.6803 24.5162 26.9848C24.2002 27.2891 23.7859 27.4463 23.3436 27.4308C22.5154 27.3995 21.8411 26.7262 21.8084 25.8982C21.7918 25.4793 21.9361 25.0772 22.2145 24.7661C22.3654 24.5975 22.4643 24.3888 22.4991 24.1653C22.534 23.9417 22.5035 23.7128 22.4111 23.5063C22.3188 23.2997 22.1687 23.1243 21.9788 23.0012C21.789 22.8781 21.5676 22.8125 21.3413 22.8125H17.1875V20.4792C17.4602 20.5262 17.7396 20.545 18.022 20.5337C20.0655 20.4529 21.7269 18.7887 21.8041 16.745C21.845 15.6625 21.4545 14.6373 20.7044 13.8583C19.954 13.0789 18.945 12.6498 17.8634 12.6498C17.6353 12.6498 17.4093 12.6695 17.1876 12.708V9.14062C17.1876 8.49344 16.6629 7.96875 16.0157 7.96875H3.01961C1.35461 7.96875 0 9.32336 0 10.9884V36.9803C0 38.6454 1.35461 40 3.01961 40H29.0116C30.6766 40 32.0312 38.6454 32.0312 36.9804V23.9844C32.0312 23.3372 31.5066 22.8125 30.8594 22.8125ZM2.34375 10.9884C2.34375 10.6156 2.64695 10.3125 3.01961 10.3125H14.8437V14.528C14.8437 14.9902 15.1155 15.4092 15.5375 15.5978C15.7441 15.6902 15.973 15.7207 16.1965 15.6858C16.4201 15.6509 16.6288 15.552 16.7973 15.401C17.0903 15.1384 17.47 14.9933 17.8634 14.9934C18.3022 14.9934 18.7116 15.1676 19.0161 15.4838C19.3203 15.7998 19.4787 16.2162 19.462 16.6564C19.4308 17.4845 18.7575 18.1589 17.9295 18.1916C17.5106 18.2081 17.1084 18.0639 16.7973 17.7855C16.6288 17.6346 16.4201 17.5357 16.1966 17.5008C15.973 17.4659 15.7442 17.4965 15.5376 17.5888C15.331 17.6811 15.1556 17.8312 15.0325 18.0211C14.9094 18.2109 14.8439 18.4323 14.8438 18.6585V22.8125H12.51C12.5484 22.5908 12.5681 22.3648 12.5681 22.1366C12.5681 21.055 12.139 20.046 11.3596 19.2957C10.5806 18.5455 9.55476 18.1537 8.47289 18.196C6.42922 18.2732 4.765 19.9345 4.68422 21.978C4.67306 22.2574 4.69131 22.5371 4.73867 22.8126H2.34375V10.9884ZM2.34375 36.9804V25.1562H6.55922C6.78552 25.1563 7.00699 25.0908 7.19688 24.9677C7.38676 24.8446 7.53694 24.6692 7.62926 24.4626C7.72159 24.256 7.75211 24.027 7.71713 23.8034C7.68216 23.5799 7.58319 23.3712 7.43219 23.2027C7.15375 22.8916 7.00945 22.4895 7.02601 22.0706C7.05875 21.2425 7.73312 20.5693 8.56125 20.538C9.00047 20.523 9.41781 20.6797 9.73383 20.984C10.0501 21.2884 10.2242 21.6978 10.2242 22.1366C10.2244 22.5301 10.0793 22.9098 9.81664 23.2027C9.50844 23.5471 9.43133 24.0406 9.61992 24.4626C9.80851 24.8845 10.2277 25.1562 10.6899 25.1562H14.8437V27.4895C14.5683 27.4421 14.2885 27.4238 14.0092 27.4351C11.9657 27.5159 10.3044 29.1801 10.2272 31.2237C10.1862 32.3062 10.5768 33.3315 11.3269 34.1105C12.0773 34.8898 13.0862 35.319 14.1678 35.319C14.3959 35.319 14.622 35.2993 14.8437 35.2608V37.6562H3.01961C2.64695 37.6562 2.34375 37.353 2.34375 36.9804ZM29.6875 36.9804C29.6875 37.3531 29.3843 37.6562 29.0116 37.6562H17.1875V33.4408C17.1876 33.2145 17.1221 32.993 16.999 32.8031C16.8759 32.6132 16.7005 32.463 16.4938 32.3707C16.2872 32.2783 16.0583 32.2478 15.8347 32.2828C15.6111 32.3178 15.4025 32.4167 15.2339 32.5677C14.9409 32.8303 14.5613 32.9755 14.1678 32.9753C13.7291 32.9753 13.3197 32.8012 13.0152 32.4849C12.7109 32.169 12.5526 31.7526 12.5692 31.3123C12.6005 30.4842 13.2737 29.8098 14.1018 29.7771C14.5177 29.7597 14.9239 29.9054 15.2339 30.1833C15.4025 30.3342 15.6111 30.4331 15.8347 30.468C16.0582 30.5029 16.2871 30.4724 16.4937 30.3801C16.7003 30.2877 16.8757 30.1376 16.9988 29.9478C17.1219 29.7579 17.1874 29.5365 17.1874 29.3102V25.1562H19.5207C19.4733 25.4317 19.455 25.7115 19.4662 25.9908C19.547 28.0343 21.2112 29.6956 23.2549 29.7728C24.337 29.8148 25.3627 29.4232 26.1416 28.6731C26.921 27.9227 27.3502 26.9137 27.3502 25.8322C27.3502 25.6041 27.3305 25.378 27.292 25.1563H29.6875V36.9804Z" fill="#00ADEB"/>
</svg>
