<svg width="40" height="40" viewBox="0 0 40 40" fill="none" xmlns="http://www.w3.org/2000/svg">
<path d="M36.7644 28.3141C34.59 29.4358 33.0906 26.4341 34.9674 25.2486C37.0927 24.1165 38.667 27.1341 36.7644 28.3141ZM20.9079 37.4412C18.7337 38.5629 17.2341 35.5613 19.1109 34.3758C21.2341 33.2433 22.8116 36.2609 20.9079 37.4412ZM8.16509 28.6813C8.57158 26.7767 7.26627 24.532 5.29823 24.0021V16.0245C5.97158 15.8305 6.77596 15.3371 7.28471 14.7043L15.9299 18.6271C15.6073 20.4825 16.9401 22.6273 18.8158 23.1225V31.959C18.2047 32.1427 17.4804 32.5633 16.9763 33.1287L8.16509 28.6813ZM5.02643 29.4894C2.85214 30.6111 1.35269 27.6095 3.22933 26.424C5.3562 25.292 6.92838 28.3101 5.02643 29.4894ZM2.61269 12.9796C1.50675 10.8893 4.35018 9.20786 5.64307 11.1564C6.76432 13.3212 3.81659 14.882 2.61269 12.9796ZM19.1103 2.59741C19.8046 2.14351 21.0309 2.33577 21.524 3.21843C22.8978 7.81185 15.7345 5.62936 19.1103 2.59741ZM31.7978 10.4117C31.7285 10.9485 31.7652 11.4938 31.9059 12.0164L23.0285 16.3945C21.4691 14.6543 18.4874 14.6356 16.8997 16.4925L8.20189 12.5458C8.2613 12.0407 8.22708 11.5289 8.10095 11.0361L16.8573 6.77381C18.3172 8.6338 21.4682 8.78685 23.0847 6.86147L31.7978 10.4117ZM34.9673 9.40177C37.0652 8.26857 38.6812 11.2714 36.7643 12.4672C34.59 13.589 33.0906 10.5872 34.9673 9.40177ZM18.2856 18.7576C19.0003 16.4542 22.2163 17.425 21.7324 19.6237C21.006 21.9294 17.8054 20.9561 18.2856 18.7576ZM33.7678 23.2345C32.1963 24.1742 31.4762 26.0126 31.8683 27.7155L22.8107 32.8909C22.3454 32.4531 21.7825 32.1301 21.1565 31.9473V23.1402C23.0744 22.6317 24.4457 20.5326 24.0691 18.4954L33.1406 14.0217C33.5885 14.422 34.1195 14.7183 34.6955 14.8891V22.8244C34.3706 22.9224 34.059 23.0602 33.7678 23.2345ZM37.0362 22.8267V14.891C43.7891 12.0918 37.5445 3.29304 32.7388 8.26326L24.0669 4.72975C24.2001 3.82499 24.0379 2.87069 23.539 2.02492V2.02499C21.0118 -1.92648 15.4633 0.425155 15.9344 4.61553L6.89369 9.01638C1.38761 4.82835 -3.16237 13.7861 2.95753 16.0225V23.9998C-3.63854 26.6838 2.16347 35.4276 7.12002 30.78L15.9617 35.2428C15.4544 42.0493 25.1899 41.195 23.9926 34.9155L33.021 29.7568C38.4855 34.1298 43.2301 25.105 37.0362 22.8267Z" fill="#00ADEB"/>
</svg>
