<svg width="40" height="40" viewBox="0 0 40 40" fill="none" xmlns="http://www.w3.org/2000/svg">
<path d="M20.644 14.7074L32.3935 2.95752C32.8979 2.45311 33.5821 2.16974 34.2954 2.16974C35.0087 2.16974 35.6929 2.45311 36.1973 2.95752C36.7017 3.46193 36.9851 4.14605 36.9851 4.85939C36.9851 5.57273 36.7017 6.25686 36.1973 6.76127L24.4478 18.5111" stroke="#00ADEB" stroke-width="3" stroke-linecap="round" stroke-linejoin="round"/>
<path d="M31.2759 19.2905L38.2182 12.3479C38.7213 11.8422 39.0029 11.1573 39.0011 10.444C38.9992 9.73062 38.7141 9.04722 38.2084 8.54411C37.7027 8.041 37.0178 7.75938 36.3045 7.76121C35.5912 7.76304 34.9078 8.04817 34.4047 8.55387L27.4624 15.4965" stroke="#00ADEB" stroke-width="3" stroke-linecap="round" stroke-linejoin="round"/>
<path d="M24.9596 10.3916L29.5082 5.84336C29.9377 5.2968 30.1398 4.6056 30.0724 3.91374C30.005 3.22188 29.6732 2.5827 29.1463 2.12934C28.6103 1.68879 27.9284 1.46569 27.2357 1.50429C26.543 1.54288 25.8901 1.84034 25.4064 2.3377L20.928 6.81607L9.66241 18.0816L14.3214 10.0116C14.5912 9.37913 14.6095 8.66747 14.3725 8.02193C14.1355 7.37639 13.661 6.84566 13.046 6.53808C12.4309 6.23051 11.7216 6.16928 11.063 6.3669C10.4043 6.56452 9.84588 7.00608 9.50173 7.60145L3.20783 18.5509C0.469149 23.315 0.942552 29.363 4.60289 33.4618C4.73103 33.6052 4.8628 33.7466 4.9982 33.886C10.2282 39.2639 19.04 39.1333 24.3443 33.829L31.7476 26.4257L37.7933 20.38C38.2228 19.8334 38.4249 19.1422 38.3575 18.4503C38.2901 17.7585 37.9584 17.1193 37.4314 16.6659C36.8955 16.2254 36.2135 16.0023 35.5208 16.0409C34.8281 16.0795 34.1752 16.3769 33.6915 16.8743L28.2592 22.3066" stroke="#00ADEB" stroke-width="3" stroke-linecap="round" stroke-linejoin="round"/>
<path d="M13.0725 26.5346L12.967 26.4269C12.4378 25.9029 12.1325 25.194 12.1155 24.4494C12.0985 23.7048 12.371 22.9827 12.8757 22.4351C13.3804 21.8874 14.0779 21.5569 14.8214 21.5132C15.5648 21.4695 16.2962 21.716 16.8616 22.2008C16.9314 22.2571 17.0183 22.2878 17.1079 22.2878C17.1975 22.2878 17.2845 22.2571 17.3542 22.2008C17.9201 21.7151 18.6525 21.4683 19.3968 21.5124C20.1412 21.5564 20.8394 21.8879 21.3441 22.4369C21.8487 22.9858 22.1204 23.7094 22.1018 24.4548C22.0832 25.2003 21.7757 25.9094 21.2443 26.4325L21.1437 26.5346L17.3917 30.3564C17.3547 30.394 17.3105 30.4239 17.2618 30.4443C17.2131 30.4647 17.1609 30.4752 17.1081 30.4752C17.0553 30.4752 17.003 30.4647 16.9543 30.4443C16.9056 30.4239 16.8615 30.394 16.8245 30.3564L13.0725 26.5346Z" stroke="#00ADEB" stroke-width="3" stroke-linecap="round" stroke-linejoin="round"/>
</svg>
