<svg width="40" height="40" viewBox="0 0 40 40" fill="none" xmlns="http://www.w3.org/2000/svg">
<path d="M23.5156 16.5625C18.3031 16.5625 14.0625 20.7681 14.0625 25.9375C14.0625 31.1069 18.3031 35.3125 23.5156 35.3125C28.7281 35.3125 32.9687 31.1069 32.9687 25.9375C32.9687 20.7681 28.7281 16.5625 23.5156 16.5625ZM23.5156 32.9687C19.5955 32.9687 16.4062 29.8145 16.4062 25.9375C16.4062 22.0605 19.5955 18.9062 23.5156 18.9062C27.4358 18.9062 30.625 22.0605 30.625 25.9375C30.625 29.8145 27.4358 32.9687 23.5156 32.9687Z" fill="#00ADEB"/>
<path d="M23.5156 21.25C20.9364 21.25 18.75 23.3391 18.75 25.9375C18.75 28.5416 20.942 30.625 23.5156 30.625C26.0948 30.625 28.2812 28.5359 28.2812 25.9375C28.2812 23.3334 26.0893 21.25 23.5156 21.25ZM23.5156 28.2812C22.2028 28.2812 21.0937 27.208 21.0937 25.9375C21.0937 24.667 22.2028 23.5937 23.5156 23.5937C24.8284 23.5937 25.9375 24.667 25.9375 25.9375C25.9375 27.208 24.8284 28.2812 23.5156 28.2812Z" fill="#00ADEB"/>
<path d="M36.4844 14.2187H32.2823L30.2817 12.2183C30.062 11.9985 29.7639 11.875 29.4531 11.875H28.2812V9.49273C28.9275 9.39718 29.5342 9.1232 30.0332 8.7016C30.5323 8.28001 30.9037 7.72753 31.1059 7.10633L31.8841 4.61602C32.6349 2.33891 30.9422 0 28.5451 0H18.4862C16.0886 0 14.3966 2.33953 15.1472 4.61602L15.9254 7.10633L15.9322 7.12742C16.1371 7.74378 16.5089 8.29121 17.0064 8.7088C17.5039 9.12639 18.1075 9.39777 18.75 9.49273V11.875H17.5781C17.2673 11.875 16.9693 11.9985 16.7495 12.2183L14.749 14.2187H11.7187V13.0469C11.7187 11.1084 10.1416 9.53125 8.20312 9.53125C6.26461 9.53125 4.6875 11.1084 4.6875 13.0469V14.2187H3.51562C1.57711 14.2187 0 15.7959 0 17.7344V36.4844C0 38.4229 1.57711 40 3.51562 40H36.4844C38.4229 40 40 38.4229 40 36.4844V17.7344C40 15.7959 38.4229 14.2187 36.4844 14.2187ZM18.1586 6.39484L17.3812 3.90727C17.3791 3.90023 17.3768 3.8932 17.3745 3.88625C17.1211 3.12641 17.6854 2.34375 18.4862 2.34375H28.5452C29.3461 2.34375 29.9101 3.12656 29.6569 3.88625C29.6545 3.8932 29.6523 3.90023 29.6501 3.90727L28.8727 6.39484C28.7938 6.62621 28.6444 6.82707 28.4456 6.96923C28.2467 7.11139 28.0083 7.18772 27.7638 7.1875H19.2673C19.0229 7.18772 18.7845 7.11139 18.5857 6.96923C18.3868 6.82707 18.2375 6.62621 18.1586 6.39484ZM25.9375 9.53125V11.875H21.0937V9.53125H25.9375ZM7.03125 13.0469C7.03125 12.4007 7.55695 11.875 8.20312 11.875C8.8493 11.875 9.375 12.4007 9.375 13.0469V14.2187H7.03125V13.0469ZM2.34375 21.25H8.20312C8.8493 21.25 9.375 21.7757 9.375 22.4219V31.7969C9.375 32.443 8.8493 32.9687 8.20312 32.9687H2.34375V21.25ZM37.6562 36.4844C37.6562 37.1305 37.1305 37.6562 36.4844 37.6562H3.51562C2.86945 37.6562 2.34375 37.1305 2.34375 36.4844V35.3125H8.20312C10.1416 35.3125 11.7187 33.7354 11.7187 31.7969V22.4219C11.7187 20.4834 10.1416 18.9062 8.20312 18.9062H2.34375V17.7344C2.34375 17.0882 2.86945 16.5625 3.51562 16.5625H15.2344C15.5452 16.5625 15.8432 16.439 16.063 16.2192L18.0635 14.2187H28.9677L30.9682 16.2192C31.188 16.439 31.4861 16.5625 31.7969 16.5625H36.4844C37.1305 16.5625 37.6562 17.0882 37.6562 17.7344V36.4844Z" fill="#00ADEB"/>
<path d="M5.85937 23.5938C5.21219 23.5938 4.6875 24.1184 4.6875 24.7656V29.4531C4.6875 30.1003 5.21219 30.625 5.85937 30.625C6.50656 30.625 7.03125 30.1003 7.03125 29.4531V24.7656C7.03125 24.1184 6.50656 23.5938 5.85937 23.5938Z" fill="#00ADEB"/>
<path d="M34.1406 21.25C34.7878 21.25 35.3125 20.7253 35.3125 20.0781C35.3125 19.4309 34.7878 18.9062 34.1406 18.9062C33.4934 18.9062 32.9688 19.4309 32.9688 20.0781C32.9688 20.7253 33.4934 21.25 34.1406 21.25Z" fill="#00ADEB"/>
</svg>
