<svg width="40" height="40" viewBox="0 0 40 40" fill="none" xmlns="http://www.w3.org/2000/svg">
<path d="M19.2418 8.27824H31.1647C32.5638 8.278 33.9212 8.7538 35.014 9.62741C36.1068 10.501 36.8698 11.7204 37.1775 13.0852L38.8497 20.5155C39.0732 21.5088 39.0471 22.5421 38.7737 23.5229L36.931 30.1314C36.6901 30.9957 36.173 31.7573 35.4586 32.3C34.7441 32.8427 33.8717 33.1366 32.9745 33.1368M14.7327 33.1368H20.1909M1 1H14.0774C14.8123 0.9999 15.5386 1.15752 16.2074 1.4622C16.8761 1.76689 17.4717 2.21155 17.9538 2.76615C18.436 3.32075 18.7935 3.97236 19.0022 4.67698C19.211 5.38159 19.266 6.1228 19.1638 6.85053L15.4702 33.1368H10.2359M1 33.1368H3.37061M29.1331 17.3272H36.8838M1 23.4777H6.66975M1 12.6559H9.94424M31.8591 33.4121C31.8591 34.8943 31.2703 36.3158 30.2222 37.3638C29.1741 38.4119 27.7526 39.0007 26.2705 39.0007C24.7883 39.0007 23.3668 38.4119 22.3187 37.3638C21.2706 36.3158 20.6818 34.8943 20.6818 33.4121C20.6818 31.9299 21.2706 30.5084 22.3187 29.4603C23.3668 28.4123 24.7883 27.8235 26.2705 27.8235C27.7526 27.8235 29.1741 28.4123 30.2222 29.4603C31.2703 30.5084 31.8591 31.9299 31.8591 33.4121Z" stroke="#E6723C" stroke-width="2.5" stroke-linecap="round" stroke-linejoin="round"/>
</svg>
