<svg width="40" height="40" viewBox="0 0 40 40" fill="none" xmlns="http://www.w3.org/2000/svg">
<path d="M31.6668 15C31.6668 17.4167 30.9502 19.6334 29.7168 21.4834C27.9168 24.1501 25.0668 26.0334 21.7502 26.5167C21.1835 26.6167 20.6002 26.6667 20.0002 26.6667C19.4002 26.6667 18.8168 26.6167 18.2502 26.5167C14.9335 26.0334 12.0835 24.1501 10.2835 21.4834C9.05016 19.6334 8.3335 17.4167 8.3335 15C8.3335 8.55004 13.5502 3.33337 20.0002 3.33337C26.4502 3.33337 31.6668 8.55004 31.6668 15Z" stroke="#00ADEB" stroke-width="2.5" stroke-linecap="round" stroke-linejoin="round"/>
<path d="M35.4165 30.7833L32.6665 31.4333C32.0498 31.5833 31.5665 32.05 31.4331 32.6667L30.8498 35.1167C30.5331 36.45 28.8331 36.85 27.9498 35.8L19.9998 26.6667L12.0498 35.8167C11.1665 36.8667 9.46647 36.4667 9.14981 35.1333L8.56647 32.6833C8.41647 32.0667 7.93314 31.5833 7.33314 31.45L4.58314 30.8C3.31647 30.5 2.86647 28.9167 3.78314 28L10.2831 21.5C12.0831 24.1667 14.9331 26.05 18.2498 26.5334C18.8165 26.6334 19.3998 26.6834 19.9998 26.6834C20.5998 26.6834 21.1831 26.6334 21.7498 26.5334C25.0665 26.05 27.9165 24.1667 29.7165 21.5L36.2165 28C37.1331 28.9 36.6831 30.4833 35.4165 30.7833Z" stroke="#00ADEB" stroke-width="2.5" stroke-linecap="round" stroke-linejoin="round"/>
<path d="M20.9668 9.96663L21.9501 11.9333C22.0835 12.1999 22.4334 12.4666 22.7501 12.5166L24.5335 12.8166C25.6668 12.9999 25.9335 13.8333 25.1168 14.65L23.7335 16.0333C23.5001 16.2666 23.3668 16.7166 23.4501 17.05L23.8501 18.7666C24.1668 20.1166 23.4501 20.6499 22.2501 19.9333L20.5835 18.9499C20.2835 18.7666 19.7834 18.7666 19.4834 18.9499L17.8168 19.9333C16.6168 20.6333 15.9001 20.1166 16.2168 18.7666L16.6168 17.05C16.6835 16.7333 16.5668 16.2666 16.3335 16.0333L14.9501 14.65C14.1335 13.8333 14.4001 13.0166 15.5335 12.8166L17.3168 12.5166C17.6168 12.4666 17.9668 12.1999 18.1001 11.9333L19.0835 9.96663C19.5668 8.89996 20.4335 8.89996 20.9668 9.96663Z" stroke="#00ADEB" stroke-width="2.5" stroke-linecap="round" stroke-linejoin="round"/>
</svg>
