<svg width="76" height="76" viewBox="0 0 76 76" fill="none" xmlns="http://www.w3.org/2000/svg">
<path d="M3.35986 9.24384L21.4927 20.0495L21.5278 20.071L21.5376 20.111L22.0142 22.0016L22.0239 22.0427L22.0024 22.0778L9.08643 43.5632L9.06396 43.6003L9.021 43.6091L7.05029 44.027L7.0083 44.0368L6.97217 44.0114L2.19189 40.6579L2.10986 40.6013L2.16748 40.5192L3.74854 38.2653L3.80615 38.1833L3.88818 38.2409L7.37158 40.6843L18.7085 21.8268L1.84912 11.78L1.76318 11.7292L1.81396 11.6432L3.22314 9.27899L3.27393 9.19305L3.35986 9.24384ZM72.7769 9.27899L74.186 11.6432L74.2368 11.7292L74.1509 11.78L57.2915 21.8268L68.6274 40.6843L72.1128 38.2399L72.1948 38.1833L72.2524 38.2643L73.8325 40.5182L73.8901 40.6003L73.8081 40.6579L69.0269 44.0114L68.9917 44.0368L68.9487 44.027L66.978 43.6091L66.936 43.6003L66.9136 43.5632L53.9976 22.0778L53.9761 22.0427L53.9858 22.0016L54.4614 20.111L54.4722 20.071L54.5073 20.0495L72.6401 9.24384L72.7251 9.19305L72.7769 9.27899Z" fill="white" stroke="white" stroke-width="0.2"/>
<path d="M42.4434 21.834L42.9141 21.873H42.9229L42.9316 21.876L53.1953 24.5518L56.7295 23.2256L56.8223 23.1904L56.8574 23.2842L57.8232 25.8623L57.8584 25.9551L57.7646 25.9902L53.7939 27.4805L53.7793 27.4854L53.7637 27.4863L52.9326 27.5293L52.917 27.5303L52.9023 27.5264L42.4385 24.7979C38.0268 25.2168 33.8751 26.0466 29.7744 27.3291L25.3721 35.1396C25.298 35.27 25.2537 35.4159 25.2422 35.5654C25.2307 35.7148 25.2524 35.8648 25.3057 36.0049V36.0059C25.3686 36.1728 25.53 36.4692 25.917 36.6074L26.1719 36.6885C27.4576 37.0421 28.8795 36.6339 29.7676 35.6572L33.2705 31.8105L33.2803 31.7998L33.291 31.793L33.9092 31.4033L33.9209 31.3955L33.9336 31.3916L37.3154 30.3633C38.093 30.1295 38.9117 30.0637 39.7168 30.1689C40.522 30.2743 41.2959 30.5487 41.9873 30.9746H41.9883L51.793 37.0771L51.7998 37.0811L51.8047 37.0859L61.3887 45.1797L61.5664 45.3369C61.7416 45.5011 61.91 45.6865 62.0762 45.8955L62.0781 45.8975C63.4194 47.6703 63.3539 50.0625 61.9365 51.7393C61.5012 52.2541 60.9585 52.6678 60.3467 52.9512C59.735 53.2345 59.0696 53.3798 58.3955 53.3789V53.3799C57.7162 53.3793 57.0461 53.2296 56.4326 52.9434L56.1738 52.8125L45.0312 46.7705L44.9434 46.7236L44.9912 46.6357L46.3027 44.2158L46.3506 44.1279L46.4385 44.1748L57.5859 50.2188C58.2837 50.598 59.1851 50.4219 59.6826 49.832C60.1922 49.2291 60.2178 48.3325 59.7432 47.7051V47.7041C59.7051 47.6562 59.6645 47.6105 59.6221 47.5664L59.4873 47.4385L49.9805 39.4102L40.4326 33.4854C40.0976 33.2791 39.7221 33.1463 39.332 33.0957C38.942 33.0452 38.5453 33.0784 38.1689 33.1924L35.1807 34.0986L31.9521 37.6445C31.083 38.5965 29.9514 39.2708 28.7002 39.5811C27.4491 39.8913 26.134 39.8242 24.9209 39.3887C24.3766 39.1944 23.8811 38.8835 23.4697 38.4775C23.0585 38.0717 22.7415 37.5805 22.54 37.0391L22.4688 36.833C22.3172 36.3501 22.2595 35.8419 22.2988 35.3359C22.3438 34.7575 22.5146 34.1956 22.7998 33.6904L27.4863 25.376L27.4951 25.3594L27.5098 25.3477L28.2871 24.7109L28.3018 24.6992L28.3203 24.6934C32.8882 23.2182 37.5016 22.2823 42.4258 21.834L42.4346 21.833L42.4434 21.834Z" fill="white" stroke="white" stroke-width="0.2"/>
<path d="M55.4229 49.0751L56.875 50.2587C57.3551 50.6453 57.7527 51.1256 58.042 51.6699C58.3312 52.214 58.5067 52.8117 58.5586 53.4257L58.5742 53.6562C58.5964 54.1946 58.5225 54.7331 58.3564 55.247C58.1668 55.834 57.8593 56.3757 57.4541 56.8408L57.4551 56.8417C57.0229 57.34 56.4885 57.7401 55.8887 58.0146C55.2887 58.289 54.6363 58.4323 53.9766 58.4335C53.2224 58.4335 52.4674 58.239 51.792 57.8749L41.2109 52.1757L41.123 52.1279L41.1709 52.04L42.4775 49.6161L42.5244 49.5283L42.6123 49.5761L53.1943 55.2753V55.2763C53.8835 55.6505 54.7261 55.4765 55.2246 54.9052C55.516 54.5687 55.6565 54.1353 55.6172 53.6865V53.6855C55.5988 53.4655 55.5362 53.2515 55.4326 53.0566C55.329 52.8617 55.1866 52.69 55.0146 52.5517L55.0137 52.5507L53.5576 51.3642L53.4805 51.3017L53.543 51.2236L55.2822 49.0898L55.3457 49.0126L55.4229 49.0751ZM66.0166 39.9775L68.1855 41.6738L68.2646 41.7363L68.2031 41.8144C66.3618 44.1642 64.2045 46.2484 61.792 48.0068L61.7109 48.0654L61.6523 47.9843L60.0283 45.7617L59.9697 45.6806L60.0498 45.622C62.2423 44.0245 64.2032 42.1307 65.876 39.9951L65.9375 39.916L66.0166 39.9775Z" fill="white" stroke="white" stroke-width="0.2"/>
<path d="M51.9087 54.73L52.812 55.6246H52.811C53.6146 56.4114 54.0803 57.4798 54.1099 58.6041C54.1375 59.6581 53.78 60.6836 53.1079 61.4898L52.9692 61.648C52.5613 62.0944 52.0646 62.4511 51.5112 62.6949C50.9579 62.9385 50.3599 63.0644 49.7554 63.064C49.2033 63.0622 48.657 62.9562 48.145 62.7535L47.9272 62.6607L37.7114 57.9156L37.6206 57.8736L37.6626 57.7828L38.8228 55.2857L38.8647 55.1949L38.9556 55.2369L49.1636 59.9791C49.7197 60.2326 50.3951 60.0902 50.7856 59.6588L50.8726 59.5552C51.0616 59.3056 51.1618 58.9979 51.1538 58.6822C51.1447 58.3214 50.9946 57.9787 50.7368 57.7261V57.7252L49.8306 56.8277L49.7603 56.7574L49.8306 56.6861L51.7671 54.731L51.8374 54.6597L51.9087 54.73Z" fill="white" stroke="white" stroke-width="0.2"/>
<path d="M34.5068 60.1451C37.7117 61.5235 40.506 62.5941 43.0527 63.4205H43.0537C43.9539 63.7148 44.9321 63.3485 45.4404 62.5279L45.4414 62.5269L45.624 62.2418C45.8635 61.8531 45.9636 61.3941 45.9082 60.941L45.8965 60.8414L45.9961 60.8297L48.7305 60.5152L48.8301 60.5035L48.8418 60.6031C48.9701 61.7252 48.7155 62.8583 48.1201 63.8179L48.1191 63.8189L47.9404 64.1002C47.4933 64.8255 46.8677 65.4245 46.124 65.8404C45.3798 66.2565 44.5411 66.4752 43.6885 66.4761C43.162 66.4764 42.6388 66.3927 42.1387 66.2281C39.5062 65.375 36.6275 64.2709 33.3408 62.858L33.249 62.8189L33.2881 62.7271L34.375 60.1978L34.4141 60.105L34.5068 60.1451ZM9.88574 40.6675C10.7576 42.0676 12.4393 44.6553 13.917 46.2964L13.9844 46.3707L13.9102 46.4371L11.8652 48.2798L11.791 48.3463L11.7236 48.272C10.1716 46.5505 8.50417 44.0349 7.37988 42.231L7.32715 42.1461L7.41211 42.0933L9.74805 40.6363L9.83301 40.5826L9.88574 40.6675ZM20.0703 22.1812C21.5821 22.9307 24.7224 24.3351 28.7549 25.3277L28.8525 25.3521L28.8281 25.4488L28.1709 28.1226L28.1475 28.2193L28.0498 28.1959C23.7432 27.1358 20.3817 25.6311 18.7607 24.8287L18.6709 24.7838L18.7148 24.6949L19.9365 22.2271L19.9805 22.1373L20.0703 22.1812Z" fill="white" stroke="white" stroke-width="0.2"/>
<path d="M32.4321 54.3087C33.5824 54.3689 34.6709 54.878 35.4497 55.7256C36.8171 57.1926 37.0172 59.4134 35.9282 61.1182C35.6713 61.5195 35.4142 61.9195 35.1577 62.3106C34.584 63.1826 33.879 64.2083 33.0015 65.2149C32.5752 65.7035 32.0488 66.0951 31.4585 66.3633C30.868 66.6316 30.2262 66.7709 29.5776 66.7706C29.4436 66.7706 29.3081 66.7645 29.1733 66.752V66.751C27.7661 66.6249 26.5508 65.8702 25.8433 64.6778L25.7964 64.5987L25.7983 64.5967L25.7827 64.5762L25.7769 64.5674L25.8628 64.5167L25.7769 64.5665C25.235 63.6411 25.1028 62.4101 25.4409 61.2462L25.5493 60.9014C25.8165 60.1012 26.1847 59.3209 26.646 58.5733L26.6987 58.4883L26.7837 58.5401L29.1265 59.9864L29.2114 60.0381L29.1597 60.1241C28.7688 60.7577 28.4713 61.4145 28.2749 62.0772C28.1609 62.4694 28.1952 62.8564 28.3569 63.1339L28.3618 63.1426L28.3745 63.1583L28.3794 63.1631L28.3823 63.17C28.6792 63.6708 29.1663 63.786 29.437 63.8106L29.438 63.8116C29.687 63.8347 29.9382 63.7979 30.1704 63.7051C30.4026 63.6124 30.6094 63.4657 30.7739 63.2774C31.5377 62.401 32.1708 61.4789 32.6899 60.6895L33.4409 59.5274C33.7806 58.9943 33.7452 58.3116 33.3638 57.8262L33.2827 57.7315C32.7302 57.1286 31.7302 57.1165 31.146 57.6856L31.144 57.6876C31.0554 57.7695 31.0036 57.8226 30.9517 57.879L30.8833 57.9522L30.8101 57.8848L28.7788 56.0274L28.7056 55.96L28.772 55.8868C28.8842 55.7629 28.9966 55.6502 29.1187 55.5381C29.9462 54.7406 31.0523 54.2977 32.2017 54.3028L32.4321 54.3087ZM17.3325 42.4708C17.9405 42.4895 18.5382 42.6332 19.0884 42.8926C19.6386 43.1521 20.1295 43.5223 20.5308 43.9796H20.5317C21.0284 44.5552 21.3692 45.2486 21.5229 45.9932C21.6767 46.7378 21.6377 47.5092 21.4097 48.2344L21.3804 48.3301L21.2847 48.2999L18.6597 47.4649L18.5649 47.4356L18.5952 47.3399C18.6714 47.0979 18.6843 46.8404 18.6333 46.5919C18.5822 46.3433 18.4687 46.1114 18.3032 45.919C18.1708 45.7674 18.0079 45.6452 17.8257 45.5596C17.6433 45.474 17.445 45.427 17.2437 45.4219C16.8443 45.4269 16.4599 45.5526 16.1665 45.8184C15.3772 46.5345 14.7221 47.2753 14.2212 48.0176V48.0186C13.7699 48.6679 13.4124 49.3778 13.1597 50.127C13.0532 50.4508 13.0593 50.7958 13.1665 51.0694L13.2192 51.1817L13.2554 51.254L13.3335 51.376C13.7525 51.9519 14.6103 52.0316 15.2124 51.7139L15.3013 51.6671L15.3472 51.7559L16.6255 54.1944L16.6724 54.2823L16.5835 54.3292C15.9347 54.6698 15.2128 54.848 14.48 54.8477C12.9291 54.8477 11.4325 54.053 10.6519 52.6485L10.6499 52.6446L10.7388 52.5997L10.6499 52.6436L10.5981 52.5401V52.5391C10.0773 51.5794 9.98229 50.3468 10.355 49.2022V49.2012C10.6947 48.1899 11.1754 47.2307 11.7827 46.3536C12.4094 45.4246 13.2205 44.5052 14.1841 43.6309C15.0431 42.85 16.1722 42.4337 17.3325 42.4708Z" fill="white" stroke="white" stroke-width="0.2"/>
<path d="M23.291 43.8657C24.6018 43.7633 25.8827 44.1833 26.7988 45.0092C27.0181 45.2074 27.207 45.4161 27.374 45.6479L27.4883 45.8139C28.6277 47.5583 28.3832 50.0639 26.8896 51.9828C25.4994 53.7667 24.1079 55.553 22.4463 57.2299L22.4453 57.2309L22.2188 57.4487C21.0652 58.5066 19.6082 59.0989 18.2021 59.0991C17.8779 59.0991 17.5559 59.067 17.2422 59.0034C15.8702 58.7221 14.7893 57.8318 14.2734 56.559L14.2715 56.561L14.2344 56.4672C13.6939 55.0699 13.841 53.4741 14.625 52.3041C15.8961 50.4043 17.3939 48.6073 18.8389 46.8745C19.184 46.4601 19.5278 46.0485 19.8672 45.6362L20.0293 45.4477C20.4182 45.0191 20.8812 44.6624 21.3965 44.3959C21.9851 44.0915 22.63 43.9119 23.291 43.8657ZM23.5098 46.81H23.5078C23.2448 46.8267 22.9881 46.8981 22.7539 47.019C22.5197 47.1399 22.3134 47.3083 22.1475 47.5131H22.1465C21.8013 47.9315 21.4551 48.3497 21.1074 48.7661C19.7061 50.4456 18.2625 52.1771 17.0781 53.9457C16.8322 54.3135 16.8227 54.8278 16.9336 55.2338L16.9883 55.4008L16.9922 55.4086H16.9902V55.4096H16.9912L16.9922 55.4135L17.0029 55.437L17.0049 55.4409L17.0654 55.5707C17.22 55.859 17.4693 56.0354 17.835 56.1098L17.9834 56.1332C18.7364 56.2224 19.6494 55.8551 20.3506 55.1498C21.8869 53.6006 23.1592 51.9658 24.5117 50.2309C24.9066 49.7231 25.1453 49.173 25.2236 48.6674C25.3021 48.1611 25.2194 47.7068 24.9814 47.3793C24.9581 47.3471 24.9329 47.316 24.9062 47.2866L24.8213 47.2026C24.516 46.9269 24.0123 46.7693 23.5098 46.81ZM16.9707 55.4145L16.9678 55.4155L16.9707 55.4145Z" fill="white" stroke="white" stroke-width="0.2"/>
<path d="M24.4746 50.8847C26.4666 49.1749 29.2915 49.0612 31.0459 50.6415C31.262 50.8358 31.4471 51.0396 31.6123 51.2617L31.7295 51.4257C32.8957 53.1433 32.739 55.5695 31.335 57.3964V57.3974L31.2852 57.4609C30.0545 59.0596 28.7765 60.7188 27.2295 62.2675V62.2685L27.2227 62.2763C26.1446 63.3526 24.6944 63.9589 23.2744 63.9589C22.9718 63.9589 22.671 63.93 22.375 63.8749H22.374C20.9608 63.605 19.8265 62.7123 19.2598 61.4238L19.2578 61.4247L19.2217 61.3398C18.7367 60.1928 18.787 58.7903 19.3525 57.4931C20.3722 55.1303 22.05 52.9669 24.4746 50.8847ZM29.0684 52.8349C28.4345 52.2629 27.2889 52.3612 26.3994 53.1249H26.3984C24.4446 54.802 23.0786 56.5015 22.2266 58.3056L22.0635 58.6679C21.8148 59.2377 21.7775 59.8033 21.9414 60.1904L21.958 60.2275L21.959 60.2285C22.178 60.731 22.6018 60.9109 22.9287 60.9736L23.0664 60.9951C23.7614 61.0739 24.5437 60.7774 25.1367 60.1865L25.6553 59.6513C26.8411 58.3922 27.8656 57.0622 28.9453 55.6591L28.9463 55.6581L28.9941 55.5966C29.6106 54.7935 29.7247 53.8155 29.3311 53.1552L29.2451 53.0273C29.1933 52.9577 29.1343 52.8934 29.0693 52.8359L29.0684 52.8349Z" fill="white" stroke="white" stroke-width="0.2"/>
</svg>
