<svg width="64" height="64" viewBox="0 0 64 64" fill="none" xmlns="http://www.w3.org/2000/svg">
<path d="M0.242676 61C0.242676 60.2707 0.532615 59.5714 1.04834 59.0557C1.56406 58.5399 2.26333 58.25 2.99268 58.25H61.0073C61.7367 58.25 62.4369 58.5399 62.9526 59.0557C63.4682 59.5714 63.7573 60.2708 63.7573 61C63.7573 61.7292 63.4682 62.4286 62.9526 62.9443C62.4369 63.4601 61.7367 63.75 61.0073 63.75L2.99268 63.75C2.26333 63.75 1.56406 63.4601 1.04834 62.9443C0.532615 62.4286 0.242676 61.7293 0.242676 61ZM0.242676 3C0.242676 2.27065 0.532614 1.57139 1.04834 1.05566C1.56406 0.539938 2.26333 0.25 2.99268 0.25L61.0073 0.25C61.7367 0.25 62.4369 0.539937 62.9526 1.05566C63.4682 1.57136 63.7573 2.2708 63.7573 3C63.7573 3.7292 63.4682 4.42864 62.9526 4.94434C62.4369 5.46006 61.7367 5.75 61.0073 5.75L2.99268 5.75C2.26333 5.75 1.56406 5.46006 1.04834 4.94434C0.532614 4.42861 0.242676 3.72935 0.242676 3ZM20.6577 42.2334C20.6578 41.5954 20.8799 40.9805 21.2808 40.4912L21.4634 40.2891C21.7189 40.0327 22.0227 39.8292 22.3569 39.6904C22.6912 39.5516 23.0497 39.4805 23.4116 39.4805C23.7735 39.4805 24.1321 39.5517 24.4663 39.6904C24.8004 39.8292 25.1035 40.0328 25.3589 40.2891H25.3599L28.8237 43.7568L29.2505 44.1836L29.2505 19.8965L25.4038 23.7432H25.4028C24.3422 24.8047 22.6069 24.8574 21.5308 23.8535L21.4292 23.7529C20.93 23.2339 20.6546 22.5394 20.6616 21.8193C20.6688 21.0993 20.9581 20.4104 21.4673 19.9014L29.9966 11.3672V11.3662C30.2596 11.1029 30.5727 10.8945 30.9165 10.752C31.2602 10.6096 31.6285 10.5362 32.0005 10.5361C32.3727 10.5361 32.7416 10.6094 33.0854 10.752C33.4291 10.8944 33.7414 11.1031 34.0044 11.3662V11.3672L42.5356 19.9014C43.0513 20.4171 43.3413 21.1174 43.3413 21.8467C43.3412 22.5758 43.0512 23.2754 42.5356 23.791L42.3354 23.9736C42.1266 24.1455 41.8928 24.2856 41.6421 24.3896C41.3079 24.5284 40.9493 24.5996 40.5874 24.5996C40.2256 24.5996 39.8669 24.5284 39.5327 24.3896C39.1987 24.2509 38.8955 24.0472 38.6401 23.791H38.6392L35.1772 20.3232L34.7505 19.8955V44.1836L38.5972 40.3369C39.692 39.2409 41.5065 39.2209 42.5708 40.3271C43.07 40.8462 43.3464 41.5406 43.3394 42.2607C43.3322 42.9805 43.0427 43.6687 42.5337 44.1777V44.1787L34.0024 52.7148C33.7393 52.9782 33.4264 53.1866 33.0825 53.3291C32.7386 53.4716 32.3698 53.5449 31.9976 53.5449C31.6253 53.5449 31.2565 53.4716 30.9126 53.3291C30.5689 53.1866 30.2567 52.9779 29.9937 52.7148L21.4634 44.1787C20.9477 43.663 20.6577 42.9627 20.6577 42.2334Z" fill="#F2E1B3" stroke="#FFF4D6" stroke-width="0.5"/>
</svg>
