<svg width="58" height="58" viewBox="0 0 58 58" fill="none" xmlns="http://www.w3.org/2000/svg">
<path fill-rule="evenodd" clip-rule="evenodd" d="M10 0C10.5304 0 11.0391 0.210714 11.4142 0.585787C11.7893 0.960859 12 1.46957 12 2V10C12 10.5304 11.7893 11.0391 11.4142 11.4142C11.0391 11.7893 10.5304 12 10 12H2C1.46957 12 0.960859 11.7893 0.585787 11.4142C0.210714 11.0391 0 10.5304 0 10C0 9.46957 0.210714 8.96086 0.585787 8.58579C0.960859 8.21071 1.46957 8 2 8H8V2C8 1.46957 8.21071 0.960859 8.58579 0.585787C8.96086 0.210714 9.46957 0 10 0ZM10 57.3333C10.5304 57.3333 11.0391 57.1226 11.4142 56.7476C11.7893 56.3725 12 55.8638 12 55.3333V47.3333C12 46.8029 11.7893 46.2942 11.4142 45.9191C11.0391 45.544 10.5304 45.3333 10 45.3333H2C1.46957 45.3333 0.960859 45.544 0.585787 45.9191C0.210714 46.2942 0 46.8029 0 47.3333C0 47.8638 0.210714 48.3725 0.585787 48.7476C0.960859 49.1226 1.46957 49.3333 2 49.3333H8V55.3333C8 56.4373 8.896 57.3333 10 57.3333ZM47.3333 0C46.8029 0 46.2942 0.210714 45.9191 0.585787C45.544 0.960859 45.3333 1.46957 45.3333 2V10C45.3333 11.104 46.2293 12 47.3333 12H55.3333C55.8638 12 56.3725 11.7893 56.7476 11.4142C57.1226 11.0391 57.3333 10.5304 57.3333 10C57.3333 9.46957 57.1226 8.96086 56.7476 8.58579C56.3725 8.21071 55.8638 8 55.3333 8H49.3333V2C49.3333 1.46957 49.1226 0.960859 48.7476 0.585787C48.3725 0.210714 47.8638 0 47.3333 0ZM47.3333 57.3333C46.8029 57.3333 46.2942 57.1226 45.9191 56.7476C45.544 56.3725 45.3333 55.8638 45.3333 55.3333V47.3333C45.3333 46.8029 45.544 46.2942 45.9191 45.9191C46.2942 45.544 46.8029 45.3333 47.3333 45.3333H55.3333C55.8638 45.3333 56.3725 45.544 56.7476 45.9191C57.1226 46.2942 57.3333 46.8029 57.3333 47.3333C57.3333 47.8638 57.1226 48.3725 56.7476 48.7476C56.3725 49.1226 55.8638 49.3333 55.3333 49.3333H49.3333V55.3333C49.3333 55.8638 49.1226 56.3725 48.7476 56.7476C48.3725 57.1226 47.8638 57.3333 47.3333 57.3333ZM12 14C12 13.4696 12.2107 12.9609 12.5858 12.5858C12.9609 12.2107 13.4696 12 14 12H30C30.5304 12 31.0391 12.2107 31.4142 12.5858C31.7893 12.9609 32 13.4696 32 14C32 14.5304 31.7893 15.0391 31.4142 15.4142C31.0391 15.7893 30.5304 16 30 16H16V41.3333H41.3333V16H40.6667C40.1362 16 39.6275 15.7893 39.2525 15.4142C38.8774 15.0391 38.6667 14.5304 38.6667 14C38.6667 13.4696 38.8774 12.9609 39.2525 12.5858C39.6275 12.2107 40.1362 12 40.6667 12H43.3333C43.8638 12 44.3725 12.2107 44.7476 12.5858C45.1226 12.9609 45.3333 13.4696 45.3333 14V43.3333C45.3333 43.8638 45.1226 44.3725 44.7476 44.7476C44.3725 45.1226 43.8638 45.3333 43.3333 45.3333H14C13.4696 45.3333 12.9609 45.1226 12.5858 44.7476C12.2107 44.3725 12 43.8638 12 43.3333V14Z" fill="#F2E1B3"/>
</svg>
