<svg width="64" height="46" viewBox="0 0 64 46" fill="none" xmlns="http://www.w3.org/2000/svg">
<path d="M61.499 40.2598C62.742 40.2598 63.75 41.2677 63.75 42.5107C63.7499 43.7537 62.742 44.7607 61.499 44.7607H2.48438C-0.404523 44.6456 -0.492332 40.6336 2.22266 40.2822L2.49414 40.2598H61.499ZM8.73145 29.5068C12.5455 29.6515 12.5462 35.1125 8.73145 35.2578C7.14547 35.2552 5.86035 33.9694 5.86035 32.3828C5.86047 30.7962 7.14554 29.5095 8.73145 29.5068ZM20.3594 29.5068C24.1734 29.6516 24.1741 35.1124 20.3594 35.2578C18.7734 35.2552 17.4883 33.9694 17.4883 32.3828C17.4884 30.7962 18.7734 29.5095 20.3594 29.5068ZM32.1123 29.5068C35.9266 29.6516 35.927 35.1133 32.1113 35.2578C30.5258 35.2547 29.2412 33.9691 29.2412 32.3828C29.2413 30.7962 30.5264 29.5095 32.1123 29.5068ZM43.7393 29.5068C47.5545 29.6508 47.5552 35.1132 43.7393 35.2578C42.1537 35.2547 40.8691 33.9691 40.8691 32.3828C40.8693 30.7965 42.1537 29.51 43.7393 29.5068ZM55.3672 29.5068C59.1824 29.6508 59.183 35.1132 55.3672 35.2578C53.7816 35.2547 52.4971 33.9691 52.4971 32.3828C52.4972 30.7965 53.7817 29.5099 55.3672 29.5068ZM60.9902 20.2549L61.2617 20.2773C63.9767 20.629 63.8885 24.6414 60.999 24.7559H2.98535C0.0950726 24.6405 0.00810592 20.628 2.72266 20.2773L2.99414 20.2549H60.9902ZM8.73145 9.50195C12.5455 9.64667 12.5462 15.1076 8.73145 15.2529C7.14547 15.2503 5.86035 13.9645 5.86035 12.3779C5.86043 10.7913 7.14551 9.5046 8.73145 9.50195ZM20.3594 9.50195C24.1734 9.64671 24.1741 15.1075 20.3594 15.2529C18.7734 15.2503 17.4883 13.9645 17.4883 12.3779C17.4884 10.7913 18.7734 9.50458 20.3594 9.50195ZM32.1123 9.50195C35.9266 9.64674 35.927 15.1084 32.1113 15.2529C30.5258 15.2498 29.2412 13.9642 29.2412 12.3779C29.2413 10.7913 30.5263 9.50457 32.1123 9.50195ZM43.7393 9.50195C47.5545 9.64589 47.5552 15.1084 43.7393 15.2529C42.1537 15.2498 40.8691 13.9642 40.8691 12.3779C40.8692 10.7916 42.1537 9.50507 43.7393 9.50195ZM55.3672 9.50195C59.1824 9.64593 59.183 15.1083 55.3672 15.2529C53.7816 15.2498 52.4971 13.9643 52.4971 12.3779C52.4971 10.7916 53.7816 9.50504 55.3672 9.50195ZM61.4902 0.25L61.7617 0.272461C64.4796 0.624373 64.3885 4.6444 61.4902 4.75098H2.49414C-0.404845 4.64347 -0.494776 0.623381 2.22266 0.272461L2.49414 0.25H61.4902Z" fill="#F2E1B3" stroke="#FFF4D6" stroke-width="0.5"/>
</svg>
