<svg width="140" height="92" viewBox="0 0 140 92" fill="none" xmlns="http://www.w3.org/2000/svg">
<path d="M140 0.0100861C131.332 0.0220872 122.664 0.0220873 114 0.0100864C108.34 -0.273857 103.328 5.48555 103.864 11.2044C104.101 12.7001 104.877 14.0639 106.045 14.9837C111.15 18.7709 114.104 25.5451 113.204 31.9837C112.4 39.5662 106.492 46.1297 99.2759 47.7054C98.4996 47.8054 97.7037 47.8289 96.9507 48.0648C95.8017 48.1248 94.6213 48.2452 93.4956 47.9212C87.2732 47.3933 81.6449 42.9739 79.1411 37.1351C78.7918 36.2514 78.5162 35.3396 78.2329 34.4359C78.1126 33.7721 78.0034 33.1082 77.8481 32.4525C76.9049 26.0177 79.4867 19.1789 84.5718 15.2757C86.2563 14.148 87.2147 12.0684 87.145 10.0169C87.0247 4.84594 82.6109 0.0307777 77.5142 0.0227821C68.5487 0.00683679 59.587 0.0297403 50.6216 0.0100871L50.6216 17.3148L50.5122 17.3148C50.5092 20.8815 50.4886 24.4479 50.4233 28.013C49.1268 33.056 44.2549 37.1993 39.0767 36.7034C37.1864 36.7033 35.5561 35.4112 34.481 33.9036C31.9539 30.4724 28.2623 28.0047 24.2485 26.849C23.616 26.697 22.9757 26.5852 22.3315 26.4613C20.5499 26.0774 18.7058 26.2335 16.9009 26.3255C12.1418 26.9694 7.61482 29.4323 4.52881 33.2396C0.619888 37.8627 -0.854355 44.4655 0.480957 50.4163C2.05696 58.1228 8.60898 64.5175 16.2095 65.5413C18.1114 66.0132 20.1105 65.7816 22.0435 65.6976C22.7771 65.4856 23.5227 65.3451 24.2642 65.1732C28.3905 64.0414 32.1172 61.4142 34.6714 57.8909C35.4089 56.8712 36.4179 56.0909 37.5552 55.595C42.5975 54.2553 47.8232 57.7947 49.9077 62.4417C50.195 63.3296 50.5168 64.2302 50.478 65.1781C50.4703 74.1201 50.4546 83.0582 50.4585 92.0003L140 92.0003L140 0.0100861Z" fill="white"/>
</svg>
