<svg width="267" height="347" viewBox="0 0 267 347" fill="none" xmlns="http://www.w3.org/2000/svg">
<path d="M266.281 25.513L35.2926 0.29834L0.24655 321.351L231.235 346.566L266.281 25.513Z" fill="white"/>
<path d="M266.281 25.513L35.2926 0.29834L22.6079 116.502L253.596 141.716L266.281 25.513Z" fill="#E6723C"/>
<path d="M241.199 32.1956L200.147 27.7144C194.054 27.0494 188.577 31.4488 187.912 37.5409L187.787 38.685C187.122 44.7771 191.521 50.2548 197.613 50.9198L238.665 55.401C244.758 56.066 250.235 51.6665 250.9 45.5745L251.025 44.4304C251.69 38.3383 247.291 32.8606 241.199 32.1956Z" fill="#212529"/>
<path d="M210.494 165.807C210.479 165.944 178.704 162.594 139.55 158.32C100.395 154.046 68.6259 150.46 68.6409 150.323C68.6558 150.186 100.421 153.534 139.605 157.812C178.789 162.089 210.51 165.661 210.494 165.807Z" fill="#212529"/>
<path d="M207.078 197.1C207.063 197.237 175.288 193.887 136.133 189.613C96.9782 185.339 65.2094 181.752 65.2244 181.615C65.2393 181.478 97.0043 184.827 136.189 189.104C175.373 193.382 207.093 196.963 207.078 197.1Z" fill="#212529"/>
<path d="M203.661 228.402C203.646 228.539 171.871 225.189 132.717 220.915C93.5616 216.641 61.7929 213.054 61.8079 212.917C61.8228 212.78 93.5878 216.129 132.772 220.407C171.956 224.684 203.677 228.255 203.661 228.402Z" fill="#212529"/>
<path d="M199.137 264.413L60.3839 249.266C46.7416 247.777 34.4751 257.629 32.9859 271.271L32.703 273.863C31.2138 287.505 41.0659 299.772 54.7082 301.261L193.462 316.407C207.104 317.896 219.37 308.044 220.86 294.402L221.143 291.811C222.632 278.168 212.78 265.902 199.137 264.413Z" fill="#E6723C"/>
<path d="M84.9648 105.12C83.9724 104.773 83.0507 104.25 82.2439 103.576L84.0206 100.534C84.71 101.094 85.4767 101.551 86.2969 101.891C87.1351 102.257 88.0224 102.497 88.9304 102.604C90.5929 102.786 91.4798 102.457 91.5705 101.626C91.5927 101.408 91.546 101.189 91.4371 101C91.3282 100.811 91.1625 100.66 90.9634 100.57C90.2522 100.193 89.5075 99.8833 88.739 99.6443C87.7632 99.3429 86.8118 98.9678 85.8928 98.5222C85.1508 98.1573 84.5127 97.6112 84.0376 96.9343C83.5343 96.155 83.3371 95.2171 83.4839 94.3011C83.571 93.3927 83.9379 92.5338 84.534 91.8429C85.1956 91.1004 86.0583 90.5655 87.0176 90.3031C88.2601 89.9631 89.5587 89.8793 90.8345 90.0568C91.8383 90.1674 92.8263 90.3915 93.7797 90.7246C94.6683 91.0134 95.5066 91.4387 96.2644 91.9854L94.5724 95.0662C93.3575 94.1796 91.9391 93.613 90.4477 93.4186C89.8008 93.2987 89.1334 93.3594 88.5187 93.5939C88.3311 93.67 88.167 93.7946 88.0434 93.955C87.9198 94.1154 87.8412 94.3059 87.8155 94.5067C87.7969 94.7154 87.8455 94.9246 87.9541 95.1037C88.0627 95.2829 88.2256 95.4227 88.4192 95.5028C89.1204 95.8654 89.8529 96.1639 90.6077 96.3948C91.5823 96.6967 92.5338 97.0685 93.4549 97.5071C94.1728 97.8857 94.7916 98.4278 95.2613 99.0897C95.7789 99.8598 95.9809 100.799 95.8258 101.714C95.7376 102.608 95.3758 103.453 94.7897 104.134C94.1151 104.87 93.2481 105.403 92.2866 105.672C91.0476 106.014 89.7522 106.102 88.4784 105.929C87.2773 105.812 86.0963 105.54 84.9648 105.12Z" fill="white"/>
<path d="M101.73 95.0462L97.0066 94.5306L97.3835 91.0786L111.152 92.5816L110.775 96.0336L106.072 95.5201L104.77 107.441L100.429 106.967L101.73 95.0462Z" fill="white"/>
<path d="M120.946 106.188L114.453 105.48L112.92 108.281L108.491 107.797L116.945 93.1646L121.229 93.6321L126.396 109.752L121.878 109.259L120.946 106.188ZM120.025 102.842L118.603 97.7391L116.114 102.415L120.025 102.842Z" fill="white"/>
<path d="M143.882 96.1545L142.204 111.527L138.625 111.136L132.732 102.21L131.838 110.395L127.584 109.931L129.262 94.5586L132.841 94.9493L138.724 103.884L139.618 95.689L143.882 96.1545Z" fill="white"/>
<path d="M146.932 96.4875L154.197 97.2806C155.747 97.4321 157.242 97.9337 158.57 98.7474C159.755 99.4639 160.707 100.51 161.308 101.758C161.878 103.071 162.096 104.51 161.941 105.933C161.786 107.357 161.262 108.715 160.422 109.874C159.568 110.965 158.412 111.782 157.099 112.223C155.628 112.736 154.059 112.903 152.513 112.712L145.247 111.919L146.932 96.4875ZM152.722 109.162C153.88 109.344 155.064 109.069 156.022 108.394C156.882 107.63 157.427 106.573 157.552 105.43C157.676 104.286 157.372 103.137 156.698 102.204C155.912 101.332 154.815 100.804 153.643 100.733L150.904 100.434L149.984 108.863L152.722 109.162Z" fill="white"/>
<path d="M173.812 111.959L167.319 111.251L165.786 114.052L161.356 113.568L169.811 98.9356L174.094 99.4031L179.261 115.523L174.694 115.024L173.812 111.959ZM172.891 108.613L171.469 103.51L168.979 108.186L172.891 108.613Z" fill="white"/>
<path d="M187.614 112.348L185.237 112.088L184.791 116.176L180.459 115.703L182.137 100.331L189.158 101.097C190.403 101.206 191.61 101.577 192.701 102.186C193.638 102.699 194.396 103.486 194.872 104.442C195.348 105.398 195.519 106.477 195.363 107.533C195.299 108.561 194.927 109.545 194.296 110.358C193.666 111.172 192.806 111.777 191.827 112.095L194.615 117.288L189.96 116.78L187.614 112.348ZM190.47 105.307C189.933 104.814 189.239 104.527 188.51 104.5L186.095 104.236L185.603 108.734L188.019 108.998C188.736 109.128 189.477 108.998 190.107 108.632C190.359 108.45 190.567 108.214 190.715 107.94C190.863 107.667 190.948 107.364 190.962 107.053C191.017 106.746 191.004 106.432 190.924 106.131C190.844 105.829 190.699 105.55 190.499 105.31L190.47 105.307Z" fill="white"/>
<path d="M198.37 102.102L205.606 102.892C207.156 103.044 208.651 103.545 209.978 104.359C211.162 105.078 212.113 106.123 212.717 107.369C213.287 108.683 213.505 110.122 213.35 111.545C213.194 112.968 212.671 114.326 211.831 115.486C210.974 116.574 209.819 117.39 208.507 117.834C207.036 118.347 205.467 118.515 203.922 118.323L196.685 117.533L198.37 102.102ZM204.16 114.777C205.315 114.962 206.497 114.685 207.45 114.008C208.316 113.247 208.865 112.19 208.99 111.044C209.115 109.899 208.807 108.748 208.126 107.818C207.345 106.945 206.25 106.416 205.081 106.348L202.293 106.043L201.373 114.473L204.16 114.777Z" fill="white"/>
<path d="M207.795 37.5143C208.063 37.6786 208.294 37.8972 208.474 38.156C208.653 38.4148 208.776 38.7082 208.836 39.0174C208.895 39.3266 208.889 39.6447 208.819 39.9515C208.748 40.2583 208.614 40.547 208.426 40.7992C208.147 41.1234 207.777 41.3555 207.363 41.465C206.892 41.6094 206.394 41.6497 205.906 41.5829L204.654 41.4463L204.467 43.1576L203.03 43.0007L203.708 36.7911L206.397 37.0846C206.887 37.1296 207.363 37.2759 207.795 37.5143ZM206.963 40.2339C207.088 40.1492 207.191 40.0372 207.266 39.9063C207.34 39.7755 207.383 39.6293 207.392 39.4791C207.419 39.3276 207.41 39.1719 207.366 39.0244C207.322 38.877 207.244 38.7419 207.138 38.6301C206.876 38.3973 206.541 38.2628 206.19 38.2495L205.027 38.1225L204.792 40.2739L205.956 40.4009C206.292 40.4557 206.636 40.3957 206.934 40.2306L206.963 40.2339Z" fill="white"/>
<path d="M210.244 43.541C209.862 43.3073 209.555 42.968 209.361 42.5639C209.18 42.1533 209.109 41.7018 209.158 41.2553C209.207 40.8088 209.373 40.3831 209.639 40.0214C209.918 39.6714 210.29 39.4069 210.712 39.2578C211.155 39.0981 211.628 39.0416 212.095 39.0927C212.563 39.1437 213.013 39.301 213.411 39.5524C213.687 39.7396 213.922 39.9806 214.103 40.2608C214.283 40.5411 214.406 40.8549 214.462 41.1835C214.519 41.5121 214.508 41.8487 214.432 42.1732C214.355 42.4977 214.214 42.8034 214.016 43.072C213.738 43.4232 213.366 43.688 212.943 43.8356C212.501 43.9953 212.027 44.0518 211.56 44.0007C211.092 43.9497 210.642 43.7924 210.244 43.541ZM212.593 42.6C212.854 42.3518 213.019 42.0192 213.058 41.6612C213.097 41.3032 213.008 40.943 212.807 40.6443C212.709 40.513 212.584 40.4043 212.441 40.3255C212.298 40.2466 212.139 40.1996 211.976 40.1874C211.813 40.1644 211.646 40.1762 211.488 40.222C211.329 40.2678 211.182 40.3466 211.056 40.4532C210.796 40.7015 210.631 41.0341 210.592 41.392C210.553 41.75 210.642 42.1103 210.843 42.409C210.943 42.5402 211.069 42.6489 211.214 42.7278C211.359 42.8067 211.519 42.8541 211.683 42.8669C211.848 42.8868 212.015 42.8706 212.173 42.8195C212.33 42.7683 212.475 42.6834 212.597 42.5707L212.593 42.6Z" fill="white"/>
<path d="M219.632 40.2218C219.974 40.4591 220.241 40.7906 220.398 41.1762C220.561 41.5979 220.62 42.0522 220.571 42.5013C220.522 42.9504 220.366 43.3812 220.117 43.7579C219.879 44.1004 219.548 44.3666 219.162 44.5245C218.772 44.6897 218.346 44.749 217.926 44.6963C217.657 44.6841 217.394 44.6119 217.156 44.4849C216.918 44.3579 216.712 44.1794 216.552 43.9625L216.308 46.1921L214.92 46.0405L215.628 39.5473L216.949 39.6914L216.889 40.239C217.099 40.0487 217.35 39.909 217.623 39.8307C217.896 39.7524 218.183 39.7376 218.462 39.7873C218.883 39.8265 219.287 39.9764 219.632 40.2218ZM218.715 43.2685C218.976 43.0202 219.141 42.6876 219.18 42.3296C219.219 41.9717 219.13 41.6114 218.929 41.3127C218.723 41.057 218.424 40.8934 218.098 40.8577C217.771 40.8221 217.444 40.9174 217.188 41.1227C216.927 41.371 216.763 41.7036 216.724 42.0615C216.685 42.4195 216.774 42.7798 216.975 43.0785C217.181 43.3342 217.479 43.4978 217.806 43.5334C218.132 43.5691 218.459 43.4738 218.715 43.2685Z" fill="white"/>
<path d="M226.561 40.7406L226.04 45.5128L224.75 45.3719L224.811 44.8047C224.608 44.99 224.366 45.1291 224.104 45.2123C223.832 45.291 223.547 45.3138 223.265 45.2791C222.991 45.2637 222.723 45.1937 222.476 45.0733C222.229 44.9529 222.009 44.7845 221.828 44.578C221.658 44.3396 221.537 44.0696 221.474 43.7839C221.41 43.4982 221.403 43.2025 221.455 42.9144L221.75 40.2154L223.139 40.367L222.866 42.8607C222.782 43.6332 223.063 44.0498 223.718 44.1213C223.865 44.1431 224.015 44.1332 224.158 44.0925C224.3 44.0518 224.433 43.9811 224.546 43.8851C224.801 43.6362 224.948 43.2968 224.956 42.9403L225.213 40.5835L226.561 40.7406Z" fill="white"/>
<path d="M228.039 39.0713L229.427 39.2229L228.709 45.8041L227.32 45.6525L228.039 39.0713Z" fill="white"/>
<path d="M234.089 42.0278C234.28 42.2547 234.417 42.5217 234.49 42.809C234.564 43.0963 234.571 43.3964 234.512 43.6869L234.215 46.4054L232.924 46.2645L232.989 45.668C232.805 45.8841 232.565 46.0455 232.295 46.1347C232.025 46.2239 231.736 46.2374 231.46 46.1739C231.122 46.1495 230.795 46.0495 230.502 45.8814C230.265 45.7459 230.071 45.5463 229.941 45.3056C229.825 45.0646 229.778 44.7954 229.808 44.5292C229.825 44.3262 229.89 44.1301 229.999 43.9577C230.107 43.7852 230.256 43.6414 230.431 43.5383C230.924 43.3001 231.48 43.2256 232.018 43.3256L233.113 43.4452C233.135 43.3173 233.128 43.1864 233.094 43.0613C233.06 42.9363 232.999 42.8202 232.915 42.721C232.699 42.5181 232.417 42.3995 232.12 42.3868C231.864 42.3574 231.605 42.3726 231.354 42.4318C231.12 42.4759 230.896 42.5621 230.692 42.6862L230.31 41.6549C230.614 41.4906 230.945 41.3793 231.286 41.326C231.664 41.2681 232.047 41.2601 232.427 41.3021C233.053 41.3253 233.647 41.5846 234.089 42.0278ZM232.557 45.1855C232.751 45.0985 232.906 44.9425 232.991 44.7479L233.044 44.259L232.066 44.1522C231.499 44.0903 231.195 44.2451 231.155 44.6167C231.142 44.6991 231.151 44.7832 231.181 44.861C231.21 44.9388 231.26 45.0076 231.324 45.0607C231.477 45.1938 231.671 45.2708 231.874 45.2791C232.106 45.3172 232.344 45.2845 232.557 45.1855Z" fill="white"/>
<path d="M237.97 42.0946C238.295 42.0059 238.634 41.9823 238.967 42.0253L238.829 43.2966L238.516 43.2624C238.348 43.2341 238.175 43.2399 238.01 43.2796C237.844 43.3194 237.688 43.3921 237.551 43.4935C237.416 43.6119 237.307 43.7562 237.23 43.9179C237.153 44.0795 237.109 44.2551 237.101 44.434L236.856 46.6832L235.506 46.5359L236.027 41.7637L237.348 41.9078L237.279 42.5337C237.468 42.33 237.706 42.1787 237.97 42.0946Z" fill="white"/>
<path d="M91.0989 284.255C90.0171 283.521 89.1591 282.503 88.6196 281.312C88.0794 280.081 87.8719 278.729 88.0179 277.392C88.1638 276.056 88.658 274.78 89.4512 273.695C90.2377 272.654 91.2941 271.849 92.5058 271.366C93.6986 270.919 94.9732 270.733 96.2439 270.821C97.5146 270.908 98.7517 271.267 99.872 271.873C100.805 272.396 101.6 273.134 102.19 274.026L99.8545 275.75C99.4761 275.172 98.9726 274.687 98.3813 274.329C97.7901 273.972 97.1261 273.752 96.4384 273.685C95.6134 273.581 94.7756 273.694 94.0078 274.014C93.2827 274.315 92.6583 274.817 92.2073 275.46C91.7486 276.15 91.4622 276.94 91.3723 277.763C91.2824 278.587 91.3916 279.42 91.6907 280.193C91.995 280.916 92.496 281.54 93.1368 281.993C93.8188 282.468 94.6128 282.756 95.4403 282.829C96.1272 282.915 96.8247 282.843 97.48 282.62C98.1353 282.397 98.7312 282.027 99.2226 281.54L101.131 283.727C100.361 284.479 99.421 285.034 98.3913 285.348C97.2743 285.677 96.102 285.774 94.946 285.635C93.5691 285.5 92.2472 285.026 91.0989 284.255Z" fill="white"/>
<path d="M113.932 277.416C114.328 277.953 114.608 278.565 114.757 279.214C114.906 279.864 114.919 280.537 114.797 281.192L114.11 287.479L110.923 287.131L111.556 281.333C111.682 280.639 111.557 279.924 111.202 279.315C111.013 279.069 110.772 278.868 110.497 278.725C110.222 278.582 109.919 278.501 109.61 278.488C109.251 278.427 108.884 278.444 108.532 278.537C108.181 278.63 107.853 278.797 107.572 279.027C106.987 279.586 106.644 280.351 106.617 281.16L106.023 286.597L102.835 286.249L104.49 271.091L107.678 271.439L107.098 276.749C107.58 276.362 108.14 276.086 108.74 275.939C109.392 275.779 110.067 275.739 110.732 275.82C111.346 275.854 111.947 276.013 112.497 276.288C113.047 276.562 113.536 276.946 113.932 277.416Z" fill="white"/>
<path d="M119.286 287.47C118.441 286.917 117.769 286.137 117.345 285.22C116.914 284.276 116.758 283.231 116.893 282.202C116.986 281.169 117.364 280.183 117.985 279.353C118.6 278.554 119.424 277.942 120.365 277.584C121.38 277.193 122.476 277.061 123.554 277.2C124.634 277.296 125.673 277.661 126.575 278.262C127.414 278.815 128.083 279.59 128.507 280.501C128.935 281.446 129.091 282.491 128.96 283.519C128.87 284.553 128.491 285.54 127.867 286.369C127.259 287.172 126.437 287.789 125.496 288.148C124.485 288.541 123.392 288.673 122.317 288.534C121.234 288.436 120.192 288.071 119.286 287.47ZM124.706 285.321C125.281 284.747 125.643 283.994 125.731 283.187C125.819 282.379 125.628 281.566 125.191 280.881C124.961 280.582 124.671 280.335 124.339 280.156C124.007 279.976 123.642 279.869 123.266 279.84C122.891 279.789 122.51 279.815 122.146 279.919C121.782 280.022 121.443 280.2 121.152 280.441C120.572 281.011 120.207 281.765 120.119 282.574C120.03 283.383 120.224 284.198 120.667 284.88C120.9 285.178 121.192 285.425 121.525 285.604C121.858 285.784 122.225 285.892 122.602 285.923C122.976 285.974 123.357 285.947 123.72 285.841C124.082 285.736 124.419 285.555 124.707 285.311L124.706 285.321Z" fill="white"/>
<path d="M132.655 288.93C131.813 288.375 131.144 287.596 130.723 286.68C130.293 285.736 130.136 284.691 130.271 283.662C130.364 282.63 130.743 281.643 131.364 280.813C131.975 280.015 132.795 279.402 133.734 279.043C134.758 278.675 135.858 278.567 136.935 278.729C138.015 278.825 139.053 279.19 139.956 279.791C140.79 280.347 141.455 281.121 141.879 282.03C142.306 282.975 142.463 284.019 142.331 285.048C142.241 286.081 141.862 287.069 141.238 287.897C140.632 288.699 139.814 289.315 138.877 289.678C137.866 290.07 136.773 290.203 135.698 290.063C134.604 289.946 133.558 289.556 132.655 288.93ZM138.037 286.766C138.617 286.195 138.982 285.442 139.07 284.633C139.158 283.824 138.964 283.009 138.521 282.326C138.293 282.028 138.005 281.781 137.675 281.602C137.345 281.422 136.981 281.315 136.606 281.286C136.232 281.233 135.85 281.259 135.486 281.362C135.121 281.466 134.783 281.644 134.492 281.887C133.906 282.454 133.536 283.208 133.448 284.019C133.359 284.83 133.557 285.646 134.008 286.326C134.239 286.626 134.531 286.873 134.864 287.053C135.198 287.232 135.565 287.34 135.942 287.369C136.314 287.421 136.693 287.395 137.054 287.291C137.415 287.187 137.75 287.008 138.037 286.766Z" fill="white"/>
<path d="M144.894 290.661C144.177 290.412 143.505 290.048 142.904 289.583L144.22 287.411C144.731 287.815 145.299 288.14 145.906 288.377C146.549 288.641 147.226 288.815 147.917 288.894C149.267 289.041 149.977 288.789 150.048 288.137C150.061 287.978 150.02 287.819 149.932 287.686C149.845 287.553 149.715 287.453 149.565 287.401C149.038 287.161 148.487 286.978 147.922 286.856C147.181 286.668 146.453 286.43 145.744 286.143C145.182 285.893 144.695 285.498 144.335 284.999C144.132 284.707 143.989 284.378 143.915 284.03C143.841 283.682 143.837 283.323 143.903 282.973C143.968 282.306 144.252 281.68 144.711 281.191C145.226 280.665 145.881 280.297 146.598 280.131C147.506 279.907 148.448 279.856 149.375 279.979C150.155 280.061 150.923 280.231 151.665 280.486C152.321 280.687 152.94 280.995 153.495 281.398L152.192 283.551C151.285 282.899 150.224 282.497 149.113 282.384C148.589 282.297 148.052 282.337 147.547 282.5C147.396 282.549 147.261 282.637 147.158 282.757C147.054 282.876 146.985 283.022 146.958 283.178C146.938 283.343 146.974 283.509 147.062 283.65C147.149 283.791 147.281 283.897 147.437 283.953C147.986 284.203 148.558 284.398 149.145 284.535C149.878 284.733 150.598 284.973 151.303 285.255C151.853 285.49 152.331 285.867 152.688 286.347C153.079 286.915 153.233 287.613 153.119 288.294C153.051 288.952 152.764 289.569 152.304 290.045C151.773 290.566 151.106 290.925 150.38 291.082C149.454 291.296 148.497 291.342 147.555 291.219C146.648 291.147 145.754 290.96 144.894 290.661Z" fill="white"/>
<path d="M165.892 288.481L157.59 287.574C157.651 288.242 157.966 288.861 158.47 289.303C159.041 289.779 159.747 290.063 160.489 290.117C161.007 290.186 161.534 290.156 162.042 290.03C162.522 289.897 162.971 289.671 163.362 289.362L164.853 291.385C164.209 291.933 163.452 292.332 162.635 292.553C161.819 292.773 160.964 292.81 160.132 292.661C158.989 292.562 157.886 292.191 156.915 291.578C156.053 291.032 155.365 290.249 154.935 289.323C154.505 288.379 154.348 287.334 154.483 286.305C154.578 285.274 154.952 284.289 155.566 283.455C156.16 282.656 156.964 282.038 157.888 281.67C158.861 281.277 159.919 281.14 160.959 281.273C161.983 281.363 162.966 281.712 163.817 282.287C164.628 282.822 165.267 283.579 165.657 284.467C166.068 285.443 166.211 286.511 166.072 287.56C166.072 287.56 165.989 287.957 165.892 288.481ZM158.826 284.137C158.278 284.504 157.891 285.068 157.744 285.711L163.161 286.302C163.15 285.644 162.892 285.013 162.438 284.535C161.985 284.057 161.369 283.766 160.712 283.72C160.054 283.626 159.383 283.774 158.826 284.137Z" fill="white"/>
<path d="M53.6406 154.028C53.2794 153.991 52.9451 153.821 52.7032 153.55L49.1706 149.651C49.0379 149.509 48.9348 149.342 48.8673 149.16C48.7999 148.977 48.7694 148.783 48.7777 148.589C48.7861 148.394 48.833 148.204 48.9158 148.028C48.9986 147.851 49.1156 147.694 49.26 147.563C49.5486 147.317 49.9204 147.191 50.2991 147.21C50.6779 147.23 51.0349 147.393 51.297 147.667L53.8869 150.503L60.5379 144.599C60.8322 144.363 61.2058 144.248 61.5819 144.279C61.9579 144.31 62.3079 144.484 62.5598 144.765C62.8117 145.046 62.9464 145.412 62.9362 145.79C62.9261 146.167 62.7718 146.526 62.5051 146.793L54.7588 153.665C54.6075 153.8 54.4301 153.901 54.2376 153.964C54.0452 154.026 53.8419 154.048 53.6406 154.028Z" fill="#E6723C"/>
<path d="M50.2245 185.321C49.8641 185.288 49.5293 185.121 49.2861 184.853L45.7546 180.945C45.6241 180.8 45.5234 180.632 45.458 180.449C45.3927 180.266 45.364 180.071 45.3738 179.877C45.3835 179.683 45.4313 179.493 45.5146 179.317C45.5979 179.141 45.715 178.984 45.8592 178.853C46.0034 178.723 46.1719 178.622 46.355 178.557C46.5381 178.491 46.7323 178.463 46.9265 178.472C47.3187 178.492 47.6871 178.667 47.9506 178.958L50.5404 181.794L57.1925 175.88C57.4868 175.644 57.8604 175.529 58.2365 175.56C58.6125 175.591 58.9625 175.765 59.2144 176.046C59.4663 176.327 59.601 176.693 59.5908 177.071C59.5806 177.448 59.4263 177.807 59.1597 178.074L51.4133 184.947C51.2553 185.093 51.0667 185.203 50.8611 185.268C50.6555 185.333 50.4381 185.351 50.2245 185.321Z" fill="#E6723C"/>
<path d="M46.8071 216.624C46.4459 216.587 46.1116 216.416 45.8697 216.145L42.3371 212.247C42.2067 212.103 42.1059 211.934 42.0405 211.751C41.9752 211.568 41.9466 211.374 41.9563 211.179C41.966 210.985 42.0138 210.795 42.0971 210.619C42.1804 210.443 42.2975 210.286 42.4417 210.155C42.5859 210.025 42.7544 209.924 42.9375 209.859C43.1206 209.794 43.3148 209.765 43.509 209.775C43.9012 209.794 44.2696 209.969 44.5331 210.26L47.124 213.086L53.775 207.182C54.0693 206.946 54.4429 206.832 54.819 206.862C55.195 206.893 55.545 207.067 55.7969 207.348C56.0488 207.629 56.1835 207.996 56.1733 208.373C56.1632 208.75 56.0089 209.109 55.7422 209.376L47.9959 216.249C47.8374 216.395 47.6488 216.504 47.4433 216.569C47.2378 216.634 47.0206 216.652 46.8071 216.624Z" fill="#E6723C"/>
<path d="M162.531 49.5045L165.586 57.8731L174.209 60.1008L167.197 65.5894L167.741 74.4755L160.348 69.5025L152.066 72.7644L154.514 64.2049L148.852 57.3329L157.753 57.018L162.531 49.5045Z" fill="white"/>
<path d="M147.305 47.8427L151.342 58.9013L162.737 61.8472L153.465 69.0978L154.182 80.8428L144.42 74.2654L133.48 78.5829L136.714 67.2692L129.224 58.1889L140.986 57.7708L147.305 47.8427Z" fill="white"/>
<path d="M155.255 82.7108L144.293 75.3396L132.01 80.1735L135.641 67.488L127.244 57.2993L140.436 56.8296L147.526 45.7289L152.044 58.0967L164.824 61.4016L154.427 69.5289L155.255 82.7108ZM131.226 59.0699L137.796 67.0504L134.95 76.9914L144.577 73.1935L153.149 78.978L152.483 68.6635L160.621 62.2885L150.612 59.7017L147.061 49.9828L141.499 58.6971L131.226 59.0699Z" fill="#E6723C"/>
<path d="M231.234 346.575C231.458 344.522 245.462 215.321 266.046 25.4874L266.255 25.7478L35.2961 0.536265L35.5781 0.309764C22.4642 120.444 10.3314 231.592 0.482028 321.367L0.299098 321.139L231.265 346.559L0.254262 321.55L0.0488977 321.527L0.0713141 321.322C9.87175 231.541 22.0046 120.394 35.0696 0.254255L35.0973 0L35.3809 0.0309575L266.34 25.2425L266.526 25.2627L266.501 25.4877C245.643 215.391 231.458 344.522 231.234 346.575Z" fill="#212529"/>
</svg>
