<svg width="467" height="306" viewBox="0 0 467 306" fill="none" xmlns="http://www.w3.org/2000/svg">
<g opacity="0.1">
<path d="M235.79 146.561L235.81 146.568L235.803 146.548L235.79 146.555V146.561Z" fill="#F5F5F5"/>
<path d="M235.875 146.717L235.881 146.73L235.875 146.717Z" fill="#F5F5F5"/>
<path d="M235.914 146.633L235.92 146.652L235.933 146.626L235.914 146.633Z" fill="#F5F5F5"/>
<path d="M266.355 83.6454L266.492 83.7168L316 1.3584L289.153 1.48819C289.153 1.48819 272.825 1.36489 268.062 1.48819L247.562 77.6296L247.847 77.6751L236.075 145.815L266.355 83.6454Z" fill="#F5F5F5"/>
<path d="M450.976 -0.283447H396.853L282.852 94.8658L282.982 94.9761L236.043 146.399L452.494 1.48819C452.076 0.827385 451.565 0.230637 450.976 -0.283447Z" fill="#F5F5F5"/>
<path d="M466.804 91.5236L237.042 148.151L235.998 146.899L236.575 148.248L236.309 148.313L236.082 148.242L236.212 148.164L236.011 148.216L236.186 147.879L235.978 148.106V148.197L235.861 147.1L235.745 148.093L235.673 148.002L235.712 148.106L235.498 148.034L235.102 147.664L235.504 147.015L234.992 147.58L234.661 147.262L235.485 146.762L234.427 147.048L82.91 4.27856H19.2479L178.241 109.104L234.103 147.126L231.961 147.703L0 107.52V144.51L145.144 149.449L144.268 151.396L228.483 148.644L168.507 164.764C168.507 164.68 168.468 164.602 168.442 164.518L0 231.794V276.189L187.664 175.868L232.597 148.495L234.174 148.45L92.2614 303.899H140.401L234.628 148.411L235.693 148.378L216.88 303.899H252.312L235.998 148.476L236.153 148.618L235.991 148.417L236.945 149.066L263.163 210.833L263.026 210.892L322.172 303.899H369.467L280.029 200.554C280.009 200.565 279.991 200.581 279.977 200.599L238.866 150.377L293.495 187.555C293.463 187.594 293.435 187.635 293.41 187.679L457.764 305.716H466.804V265.864L302.236 169.631L302.197 169.742L237.711 148.975L237.14 148.274L466.804 129.63V91.5236ZM234.466 148.151L233.48 147.982L234.453 147.385L234.888 147.684L234.466 148.151ZM235.706 148.339H235.634L234.778 148.19L235.031 147.768L235.394 148.021L235.148 147.937L235.699 148.313L235.706 148.339ZM235.991 148.43V148.352H236.316L236.03 148.43H236.679L236.393 148.339H236.64L236.789 148.69L235.991 148.43Z" fill="#F5F5F5"/>
<path d="M208.579 82.2502L235.738 146.263L227.73 77.1494L218.249 1.3584C218.249 1.3584 167.858 1.48819 170.81 1.48819L208.579 82.2502Z" fill="#F5F5F5"/>
<path d="M235.686 146.788L235.602 147.307L235.823 146.853L235.803 146.665L235.686 146.788Z" fill="#F5F5F5"/>
<path d="M235.887 146.633L235.9 146.646V146.633H235.887Z" fill="#F5F5F5"/>
<path d="M365.606 91.6534C367.332 89.9077 461.112 30.9375 461.112 30.9375L462.702 43.4558L365.606 91.6534Z" fill="#EBEBEB"/>
<path d="M178.475 57.3758L142.64 5.47266H130.154L178.475 57.3758Z" fill="#EBEBEB"/>
<path d="M8.01465 39.4778V54.3193L72.2933 83.1133L8.01465 39.4778Z" fill="#EBEBEB"/>
<path d="M22.5835 294.503C24.5303 293.536 73.1498 265.988 73.1498 265.988L38.5347 299.818L22.5835 294.503Z" fill="#EBEBEB"/>
<path d="M116.986 63.2749L111.593 60.3611L106.129 63.1516L107.239 57.1163L102.897 52.7878L108.972 51.9766L111.749 46.5125L114.403 52.0415L120.458 52.989L116.019 57.2201L116.986 63.2749Z" fill="#E0E0E0"/>
<path d="M273.027 31.6644L267.634 28.7506L262.17 31.5411L263.279 25.5059L258.938 21.1774L265.012 20.3662L267.79 14.8955L270.444 20.4246L276.499 21.3785L272.06 25.6097L273.027 31.6644Z" fill="#E0E0E0"/>
<path d="M124.274 273.334L118.881 270.414L113.417 273.211L114.527 267.175L110.186 262.847L116.26 262.036L119.037 256.565L121.691 262.094L127.746 263.048L123.307 267.279L124.274 273.334Z" fill="#E0E0E0"/>
<path d="M355.08 271.108L349.681 268.188L344.223 270.978L345.326 264.949L340.985 260.621L347.066 259.81L349.843 254.339L352.491 259.868L358.552 260.822L354.107 265.047L355.08 271.108Z" fill="#E0E0E0"/>
<path d="M77.2963 67.6228L74.4993 66.1108L71.6699 67.5579L72.2475 64.43L69.9956 62.1846L73.143 61.7628L74.5837 58.9333L75.9595 61.7952L79.0939 62.2884L76.7966 64.4819L77.2963 67.6228Z" fill="#E0E0E0"/>
<path d="M153.899 286.436L151.102 284.924L148.272 286.371L148.843 283.243L146.591 280.998L149.745 280.576L151.186 277.747L152.555 280.615L155.696 281.102L153.392 283.295L153.899 286.436Z" fill="#E0E0E0"/>
<path d="M322.191 237.823L319.394 236.311L316.565 237.752L317.142 234.63L314.891 232.385L318.038 231.963L319.479 229.134L320.854 231.996L323.995 232.489L321.692 234.682L322.191 237.823Z" fill="#E0E0E0"/>
<path d="M389.131 66.325L386.334 64.8129L383.504 66.2601L384.082 63.1386L381.83 60.8932L384.978 60.4714L386.418 57.6355L387.794 60.5039L390.935 60.9971L388.631 63.1905L389.131 66.325Z" fill="#E0E0E0"/>
</g>
</svg>
