<svg width="39" height="40" viewBox="0 0 39 40" fill="none" xmlns="http://www.w3.org/2000/svg">
<path d="M28.8771 25.9587V25.972C28.2085 26.1 27.6031 26.4512 27.16 26.9681C26.717 27.485 26.4626 28.137 26.4385 28.8174C26.466 29.2399 26.5771 29.6527 26.7653 30.032C26.9535 30.4112 27.2151 30.7494 27.5349 31.0268C27.8548 31.3042 28.2265 31.5154 28.6285 31.6482C29.0306 31.7809 29.455 31.8325 29.8771 31.8C30.5678 31.8 31.3145 32.1787 31.3145 32.7894C31.3145 33.9614 28.6078 34.256 28.4318 32.6774C28.3951 32.4199 28.2596 32.1869 28.054 32.0277C27.8484 31.8685 27.5888 31.7957 27.3304 31.8246C27.072 31.8536 26.835 31.9821 26.6698 32.1829C26.5045 32.3836 26.4239 32.6409 26.4451 32.9C26.5243 33.5488 26.7995 34.158 27.2341 34.6462C27.6687 35.1344 28.2419 35.4783 28.8771 35.632V35.648C28.8771 35.9133 28.9825 36.1676 29.17 36.3551C29.3576 36.5427 29.6119 36.648 29.8771 36.648C30.1424 36.648 30.3967 36.5427 30.5842 36.3551C30.7718 36.1676 30.8771 35.9133 30.8771 35.648V35.6347C31.5456 35.5065 32.1507 35.1552 32.5934 34.6383C33.0362 34.1214 33.2904 33.4695 33.3145 32.7894C33.2855 32.3672 33.1736 31.9549 32.9851 31.5761C32.7966 31.1972 32.5352 30.8593 32.216 30.5816C31.8967 30.3039 31.5257 30.092 31.1244 29.9579C30.7231 29.8237 30.2992 29.7701 29.8771 29.8C29.1851 29.8 28.4385 29.4227 28.4385 28.812C28.4385 27.6387 31.1438 27.3454 31.3211 28.924C31.3578 29.1815 31.4933 29.4145 31.699 29.5737C31.9046 29.7329 32.1641 29.8057 32.4225 29.7768C32.681 29.7478 32.9179 29.6193 33.0832 29.4186C33.2485 29.2178 33.329 28.9605 33.3078 28.7014C33.2288 28.0528 32.9537 27.4437 32.5194 26.9555C32.0851 26.4673 31.5122 26.1233 30.8771 25.9694V25.9534C30.8771 25.6882 30.7718 25.4338 30.5842 25.2463C30.3967 25.0587 30.1424 24.9534 29.8771 24.9534C29.6119 24.9534 29.3576 25.0587 29.17 25.2463C28.9825 25.4338 28.8771 25.6882 28.8771 25.9534V25.9587Z" fill="black"/>
<path d="M19.8333 0H11.0333C10.4152 0.00141093 9.82278 0.247782 9.38592 0.685137C8.94906 1.12249 8.70337 1.71517 8.70267 2.33333V2.83333H6.32933C4.65097 2.83651 3.04232 3.50492 1.85591 4.69207C0.669505 5.87923 0.00211436 7.48831 0 9.16667V33C0.0021169 34.6791 0.670057 36.2887 1.85733 37.476C3.0446 38.6633 4.65428 39.3312 6.33333 39.3333H29.8773C32.0536 39.3367 34.1487 38.5075 35.7333 37.0158C37.3179 35.524 38.2718 33.4827 38.3997 31.3102C38.5276 29.1377 37.8196 26.9985 36.421 25.3312C35.0224 23.6639 33.039 22.5946 30.8773 22.3427V9.16667C30.8752 7.48761 30.2073 5.87793 29.02 4.69066C27.8327 3.50339 26.2231 2.83545 24.544 2.83333H22.1667V2.33333C22.166 1.71471 21.9199 1.12163 21.4825 0.684197C21.045 0.246765 20.452 0.000705787 19.8333 0ZM10.7027 2.33333C10.7027 2.24493 10.7378 2.16014 10.8003 2.09763C10.8628 2.03512 10.9476 2 11.036 2H19.836C19.9244 2 20.0092 2.03512 20.0717 2.09763C20.1342 2.16014 20.1693 2.24493 20.1693 2.33333V5.29467C20.169 5.38297 20.1338 5.46755 20.0713 5.52998C20.0089 5.59242 19.9243 5.62765 19.836 5.628H11.036C10.9477 5.62765 10.8631 5.59242 10.8007 5.52998C10.7382 5.46755 10.703 5.38297 10.7027 5.29467V2.33333ZM36.4 30.8067C36.4 32.0991 36.0167 33.3625 35.2985 34.4371C34.5803 35.5116 33.5595 36.349 32.3653 36.8433C31.1711 37.3376 29.8571 37.4666 28.5896 37.214C27.3221 36.9613 26.158 36.3384 25.2445 35.4241C24.3311 34.5097 23.7094 33.345 23.4581 32.0772C23.2067 30.8094 23.3371 29.4955 23.8326 28.3018C24.3281 27.1082 25.1665 26.0882 26.2418 25.3712C27.3171 24.6541 28.5809 24.272 29.8733 24.2733C31.6049 24.2751 33.265 24.9642 34.4888 26.1893C35.7126 27.4143 36.4 29.0751 36.4 30.8067ZM24.544 4.83333C25.6928 4.83475 26.7942 5.29174 27.6066 6.1041C28.4189 6.91645 28.8759 8.01783 28.8773 9.16667V22.3427C27.2244 22.5361 25.6643 23.2095 24.3898 24.2798C23.1154 25.35 22.1824 26.7701 21.7061 28.3648C21.2298 29.9594 21.2312 31.6586 21.7099 33.2525C22.1887 34.8464 23.1239 36.2651 24.4 37.3333H6.32933C5.18119 37.3309 4.08083 36.8734 3.26935 36.0612C2.45786 35.2489 2.00141 34.1482 2 33V9.16667C2.00141 8.01783 2.45841 6.91645 3.27076 6.1041C4.08311 5.29174 5.1845 4.83475 6.33333 4.83333H8.70667V5.29467C8.70737 5.91329 8.95343 6.50637 9.39086 6.9438C9.8283 7.38124 10.4214 7.6273 11.04 7.628H19.84C20.4586 7.6273 21.0517 7.38124 21.4891 6.9438C21.9266 6.50637 22.1726 5.91329 22.1733 5.29467V4.83333H24.544Z" fill="black"/>
<path d="M14.4346 15.7214C14.4346 15.9866 14.54 16.2409 14.7275 16.4285C14.9151 16.616 15.1694 16.7214 15.4346 16.7214H24.5253C24.7905 16.7214 25.0449 16.616 25.2324 16.4285C25.4199 16.2409 25.5253 15.9866 25.5253 15.7214C25.5253 15.4561 25.4199 15.2018 25.2324 15.0142C25.0449 14.8267 24.7905 14.7214 24.5253 14.7214H15.4346C15.1694 14.7214 14.9151 14.8267 14.7275 15.0142C14.54 15.2018 14.4346 15.4561 14.4346 15.7214ZM10.3066 13.4587L7.90663 15.8587L7.05729 15.0107C6.86773 14.834 6.617 14.7379 6.35793 14.7425C6.09886 14.747 5.85168 14.852 5.66847 15.0352C5.48525 15.2184 5.3803 15.4656 5.37573 15.7247C5.37116 15.9837 5.46732 16.2345 5.64396 16.424L6.72796 17.5094C7.04105 17.821 7.46485 17.996 7.90663 17.996C8.34841 17.996 8.7722 17.821 9.08529 17.5094L11.7253 14.8694C11.9124 14.6812 12.017 14.4265 12.0163 14.1612C12.0155 13.8959 11.9094 13.6418 11.7213 13.4547C11.5332 13.2676 11.2784 13.163 11.0131 13.1637C10.7478 13.1645 10.4937 13.2706 10.3066 13.4587ZM21.9693 21.6187H15.436C15.1707 21.6187 14.9164 21.724 14.7289 21.9116C14.5413 22.0991 14.436 22.3535 14.436 22.6187C14.436 22.8839 14.5413 23.1383 14.7289 23.3258C14.9164 23.5133 15.1707 23.6187 15.436 23.6187H21.9693C22.2345 23.6187 22.4889 23.5133 22.6764 23.3258C22.8639 23.1383 22.9693 22.8839 22.9693 22.6187C22.9693 22.3535 22.8639 22.0991 22.6764 21.9116C22.4889 21.724 22.2345 21.6187 21.9693 21.6187ZM10.3066 20.356L7.90663 22.756L7.05729 21.908C6.96575 21.8098 6.85534 21.731 6.73268 21.6763C6.61001 21.6217 6.47759 21.5923 6.34332 21.5899C6.20905 21.5875 6.07568 21.6122 5.95116 21.6625C5.82665 21.7128 5.71353 21.7877 5.61858 21.8826C5.52362 21.9776 5.44876 22.0907 5.39846 22.2152C5.34817 22.3397 5.32347 22.4731 5.32584 22.6074C5.32821 22.7417 5.3576 22.8741 5.41225 22.9967C5.46691 23.1194 5.54571 23.2298 5.64396 23.3214L6.72796 24.4054C7.04071 24.7177 7.46463 24.8931 7.90663 24.8931C8.34862 24.8931 8.77255 24.7177 9.08529 24.4054L11.7253 21.7667C11.9124 21.5786 12.017 21.3238 12.0163 21.0585C12.0155 20.7932 11.9094 20.5391 11.7213 20.352C11.5332 20.165 11.2784 20.0603 11.0131 20.061C10.7478 20.0618 10.4937 20.1679 10.3066 20.356ZM18.4426 28.5147H15.4346C15.1694 28.5147 14.9151 28.62 14.7275 28.8076C14.54 28.9951 14.4346 29.2495 14.4346 29.5147C14.4346 29.7799 14.54 30.0343 14.7275 30.2218C14.9151 30.4093 15.1694 30.5147 15.4346 30.5147H18.4426C18.7078 30.5147 18.9622 30.4093 19.1497 30.2218C19.3373 30.0343 19.4426 29.7799 19.4426 29.5147C19.4426 29.2495 19.3373 28.9951 19.1497 28.8076C18.9622 28.62 18.7078 28.5147 18.4426 28.5147ZM10.3066 27.252L7.90663 29.652L7.05729 28.8027C6.965 28.7072 6.85462 28.6311 6.73259 28.5787C6.61056 28.5264 6.47933 28.4989 6.34655 28.4978C6.21377 28.4967 6.08211 28.522 5.95923 28.5724C5.83636 28.6227 5.72475 28.697 5.6309 28.791C5.53705 28.8849 5.46285 28.9966 5.41263 29.1195C5.3624 29.2424 5.33716 29.3741 5.33838 29.5069C5.3396 29.6397 5.36724 29.7709 5.41971 29.8929C5.47218 30.0148 5.54841 30.1252 5.64396 30.2174L6.72796 31.3014C7.04071 31.6137 7.46463 31.7891 7.90663 31.7891C8.34862 31.7891 8.77255 31.6137 9.08529 31.3014L11.7253 28.6614C11.9069 28.4722 12.007 28.2192 12.0039 27.957C12.0008 27.6947 11.8948 27.4442 11.7087 27.2594C11.5226 27.0745 11.2714 26.9702 11.0092 26.9688C10.7469 26.9674 10.4946 27.0691 10.3066 27.252Z" fill="black"/>
</svg>
