<svg width="40" height="40" viewBox="0 0 40 40" fill="none" xmlns="http://www.w3.org/2000/svg">
<path d="M22.6626 25.2504V34.85C22.6626 36.5758 21.2635 37.975 19.5376 37.975H4.2251C2.49924 37.975 1.1001 36.5758 1.1001 34.85V19.5375C1.1001 17.8116 2.49924 16.4125 4.2251 16.4125H13.8247M10.1626 1.09998H5.7876C3.19877 1.09998 1.1001 3.19865 1.1001 5.78748V10.1625M16.4126 1.09998H22.6626M28.9126 1.09998H33.2876C35.8764 1.09998 37.9751 3.19865 37.9751 5.78748V10.1625M37.9751 28.9125V33.2875C37.9751 35.8763 35.8764 37.975 33.2876 37.975H28.9126M37.9751 16.4125V22.6625M11.0779 27.9972L30.8098 8.26529" stroke="black" stroke-width="2.2" stroke-miterlimit="10" stroke-linecap="round" stroke-linejoin="round"/>
<path d="M10.1626 24.225V28.9125H14.8501M27.0376 7.34998H31.7251V12.0375" stroke="black" stroke-width="2.2" stroke-miterlimit="10" stroke-linecap="round" stroke-linejoin="round"/>
</svg>
