<svg width="40" height="40" viewBox="0 0 40 40" fill="none" xmlns="http://www.w3.org/2000/svg">
<path d="M10.8766 33.3594H8.11517C6.85236 33.3594 5.82861 32.3356 5.82861 31.0727V23.4657C5.82861 22.2028 6.85236 21.1791 8.11517 21.1791H10.8766C11.5405 21.1791 12.0786 21.7171 12.0786 22.381V32.1574C12.0786 32.8213 11.5405 33.3594 10.8766 33.3594Z" stroke="#E6723C" stroke-width="2.5" stroke-miterlimit="10" stroke-linecap="round" stroke-linejoin="round"/>
<path d="M5.8286 31.5015H4.61329C2.69564 31.5015 1.14111 29.9469 1.14111 28.0293V26.5094C1.14111 24.5917 2.69564 23.0371 4.61329 23.0371H5.8286V31.5015Z" stroke="#E6723C" stroke-width="2.5" stroke-miterlimit="10" stroke-linecap="round" stroke-linejoin="round"/>
<path d="M29.0618 33.3594H31.8233C33.0861 33.3594 34.1098 32.3356 34.1098 31.0727V23.4657C34.1098 22.2028 33.0861 21.1791 31.8233 21.1791H29.0618C28.398 21.1791 27.8599 21.7171 27.8599 22.381V32.1574C27.8599 32.8213 28.398 33.3594 29.0618 33.3594Z" stroke="#E6723C" stroke-width="2.5" stroke-miterlimit="10" stroke-linecap="round" stroke-linejoin="round"/>
<path d="M34.1099 31.5015H35.3252C37.2428 31.5015 38.7973 29.9469 38.7973 28.0293V26.5094C38.7973 24.5917 37.2428 23.0371 35.3252 23.0371H34.1099V31.5015Z" stroke="#E6723C" stroke-width="2.5" stroke-miterlimit="10" stroke-linecap="round" stroke-linejoin="round"/>
<path d="M18.4569 38.8281H11.6549C10.1631 38.8281 8.95361 37.6188 8.95361 36.1269V33.3594" stroke="#E6723C" stroke-width="2.5" stroke-miterlimit="10" stroke-linecap="round" stroke-linejoin="round"/>
<path d="M5.82861 21.8647V15.6765C5.82861 9.2476 11.0403 4.03589 17.4692 4.03589H17.9747" stroke="#E6723C" stroke-width="2.5" stroke-miterlimit="10" stroke-linecap="round" stroke-linejoin="round"/>
<path d="M34.1099 21.8647V15.7108" stroke="#E6723C" stroke-width="2.5" stroke-miterlimit="10" stroke-linecap="round" stroke-linejoin="round"/>
<path d="M19.6815 34.1406H17.894C16.5997 34.1406 15.5503 35.19 15.5503 36.4844C15.5503 37.7788 16.5997 38.8281 17.894 38.8281H19.6815C20.9759 38.8281 22.0253 37.7788 22.0253 36.4844C22.0253 35.19 20.9759 34.1406 19.6815 34.1406Z" stroke="#E6723C" stroke-width="2.5" stroke-miterlimit="10" stroke-linecap="round" stroke-linejoin="round"/>
<path d="M38.8586 1.17208V10.9017C38.8586 13.5582 36.705 15.7118 34.0484 15.7118H21.4356C20.9882 15.7118 20.5497 15.8367 20.1695 16.0724L17.564 17.6875V5.98254C17.564 3.32582 19.7176 1.17208 22.3744 1.17208H38.8586Z" stroke="#E6723C" stroke-width="2.5" stroke-miterlimit="10" stroke-linecap="round" stroke-linejoin="round"/>
<path d="M33.0284 6.09766H23.3945" stroke="#E6723C" stroke-width="2.5" stroke-miterlimit="10" stroke-linecap="round" stroke-linejoin="round"/>
<path d="M33.0284 10.7852H23.3945" stroke="#E6723C" stroke-width="2.5" stroke-miterlimit="10" stroke-linecap="round" stroke-linejoin="round"/>
</svg>
